<svg width="28" height="28" viewBox="0 0 28 28" fill="none" xmlns="http://www.w3.org/2000/svg">
<path d="M4.37498 21.8168C3.98609 21.8168 3.6604 21.6855 3.3979 21.423C3.1354 21.1605 3.00415 20.8349 3.00415 20.446C3.00415 20.0571 3.1354 19.7314 3.3979 19.4689C3.6604 19.2064 3.98609 19.0751 4.37498 19.0751H23.625C24.0139 19.0751 24.3396 19.2064 24.6021 19.4689C24.8646 19.7314 24.9958 20.0571 24.9958 20.446C24.9958 20.8349 24.8646 21.1605 24.6021 21.423C24.3396 21.6855 24.0139 21.8168 23.625 21.8168H4.37498ZM4.37498 15.371C3.98609 15.371 3.6604 15.2397 3.3979 14.9772C3.1354 14.7147 3.00415 14.389 3.00415 14.0001C3.00415 13.6112 3.1354 13.2855 3.3979 13.023C3.6604 12.7605 3.98609 12.6293 4.37498 12.6293H23.625C24.0139 12.6293 24.3396 12.7605 24.6021 13.023C24.8646 13.2855 24.9958 13.6112 24.9958 14.0001C24.9958 14.389 24.8646 14.7147 24.6021 14.9772C24.3396 15.2397 24.0139 15.371 23.625 15.371H4.37498ZM4.37498 8.92513C3.98609 8.92513 3.6604 8.79388 3.3979 8.53138C3.1354 8.26888 3.00415 7.94319 3.00415 7.5543C3.00415 7.16541 3.1354 6.83485 3.3979 6.56263C3.6604 6.29041 3.98609 6.1543 4.37498 6.1543H23.625C24.0139 6.1543 24.3396 6.29041 24.6021 6.56263C24.8646 6.83485 24.9958 7.16541 24.9958 7.5543C24.9958 7.94319 24.8646 8.26888 24.6021 8.53138C24.3396 8.79388 24.0139 8.92513 23.625 8.92513H4.37498Z" fill="#F6F6F8"/>
</svg>
