<svg width="18" height="18" viewBox="0 0 18 18" fill="none" xmlns="http://www.w3.org/2000/svg">
<path d="M9.00006 10.9249L3.22506 16.6999C2.95283 16.9722 2.632 17.1083 2.26256 17.1083C1.89311 17.1083 1.57228 16.9722 1.30006 16.6999C1.02783 16.4277 0.891724 16.1069 0.891724 15.7374C0.891724 15.368 1.02783 15.0472 1.30006 14.7749L7.07506 8.99993L1.30006 3.22493C1.02783 2.95271 0.891724 2.63188 0.891724 2.26243C0.891724 1.89299 1.02783 1.57216 1.30006 1.29993C1.57228 1.02771 1.89311 0.891602 2.26256 0.891602C2.632 0.891602 2.95283 1.02771 3.22506 1.29993L9.00006 7.07493L14.7751 1.29993C15.0473 1.02771 15.3681 0.891602 15.7376 0.891602C16.107 0.891602 16.4278 1.02771 16.7001 1.29993C16.9723 1.57216 17.1084 1.89299 17.1084 2.26243C17.1084 2.63188 16.9723 2.95271 16.7001 3.22493L10.9251 8.99993L16.7001 14.7749C16.9723 15.0472 17.1084 15.368 17.1084 15.7374C17.1084 16.1069 16.9723 16.4277 16.7001 16.6999C16.4278 16.9722 16.107 17.1083 15.7376 17.1083C15.3681 17.1083 15.0473 16.9722 14.7751 16.6999L9.00006 10.9249Z" fill="white"/>
</svg>
