<svg width="16" height="14" viewBox="0 0 16 14" fill="none" xmlns="http://www.w3.org/2000/svg">
<path d="M1.93343 9.75208C1.52232 9.75208 1.15565 9.59097 0.833431 9.26875C0.511209 8.94652 0.350098 8.57986 0.350098 8.16875V7.56875C0.350098 7.4243 0.369542 7.26041 0.408431 7.07708C0.44732 6.89375 0.494542 6.73541 0.550098 6.60208L2.5501 1.93541C2.68343 1.60208 2.91676 1.31875 3.2501 1.08541C3.58343 0.852079 3.93343 0.735413 4.3001 0.735413H10.5834C11.0168 0.735413 11.3862 0.88819 11.6918 1.19375C11.9973 1.4993 12.1501 1.8743 12.1501 2.31875V9.11875C12.1501 9.31875 12.114 9.51319 12.0418 9.70208C11.9695 9.89097 11.8612 10.0576 11.7168 10.2021L9.06676 13.0354C8.82232 13.291 8.53899 13.4549 8.21676 13.5271C7.89454 13.5993 7.58899 13.5632 7.3001 13.4187C7.02232 13.2854 6.81676 13.066 6.68343 12.7604C6.5501 12.4549 6.52232 12.1299 6.6001 11.7854L7.01676 9.75208H1.93343ZM14.2168 0.735413C14.4945 0.735413 14.7362 0.83819 14.9418 1.04375C15.1473 1.2493 15.2501 1.49652 15.2501 1.78541V8.71875C15.2501 8.99652 15.1529 9.23819 14.9584 9.44375C14.764 9.6493 14.5334 9.75208 14.2668 9.75208H14.2001C13.9112 9.75208 13.664 9.6493 13.4584 9.44375C13.2529 9.23819 13.1501 8.99652 13.1501 8.71875V1.78541C13.1501 1.49652 13.2529 1.2493 13.4584 1.04375C13.664 0.83819 13.9112 0.735413 14.2001 0.735413H14.2168Z" fill="#7C7C7C"/>
</svg>
