<svg width="150" height="25" viewBox="0 0 150 25" fill="none" xmlns="http://www.w3.org/2000/svg">
<g clip-path="url(#clip0_480_67717)">
<path d="M0 12.4216C0 11.5887 0.159145 10.7625 0.484201 9.94648C0.805872 9.13045 1.27652 8.38891 1.89955 7.71848C2.52257 7.04805 3.27766 6.51307 4.16818 6.11352C5.0587 5.71736 6.07111 5.51758 7.20542 5.51758C8.55983 5.51758 9.73138 5.79862 10.7167 6.35731C11.702 6.91939 12.4402 7.64738 12.9345 8.54806L10.6151 10.0718C10.3815 9.55032 10.0734 9.14399 9.69075 8.84941C9.30813 8.55482 8.89165 8.35166 8.44809 8.23315C8.00452 8.11464 7.56095 8.05708 7.12416 8.05708C6.44019 8.05708 5.84086 8.18914 5.32619 8.44986C4.81152 8.71058 4.38488 9.05595 4.04289 9.48598C3.7009 9.916 3.44696 10.4002 3.28443 10.9318C3.11852 11.4668 3.03725 11.995 3.03725 12.5165C3.03725 13.1158 3.13544 13.688 3.33522 14.2365C3.53499 14.7851 3.81265 15.2659 4.17833 15.6824C4.54064 16.0988 4.97404 16.4307 5.48194 16.6812C5.98646 16.9284 6.55531 17.0537 7.1851 17.0537C7.6219 17.0537 8.06885 16.986 8.51919 16.8472C8.96953 16.7083 9.38939 16.4882 9.77201 16.1835C10.1546 15.8788 10.4492 15.4826 10.6558 15.0018L13.1411 16.3697C12.8397 17.0469 12.3657 17.6293 11.7156 18.1101C11.0655 18.5909 10.3341 18.96 9.51806 19.214C8.70203 19.4679 7.89955 19.5966 7.10723 19.5966C6.06772 19.5966 5.10948 19.39 4.23251 18.9803C3.35553 18.5706 2.60384 18.0221 1.97404 17.3381C1.34424 16.6542 0.856661 15.8855 0.514674 15.0323C0.169302 14.1756 0 13.3054 0 12.4216ZM25.8894 16.9961V19.4984H15.7246V5.61578H25.7032V8.11803H18.7212V11.2467H24.7382V13.5932H18.7212V16.9961H25.8894ZM40.6727 15.9194C40.6727 16.7016 40.456 17.3551 40.026 17.8833C39.596 18.4115 39.0169 18.811 38.2923 19.0853C37.5677 19.3596 36.7585 19.495 35.868 19.495H28.8251V5.61239H36.7314C37.4154 5.61239 38.0079 5.78507 38.509 6.13044C39.0102 6.47582 39.3928 6.92277 39.6603 7.4713C39.9278 8.01983 40.0598 8.5853 40.0598 9.17108C40.0598 9.82458 39.8804 10.4476 39.5248 11.0469C39.1693 11.6463 38.6479 12.0898 37.9639 12.3776C38.8002 12.6113 39.4605 13.0311 39.9447 13.6372C40.4289 14.2501 40.6727 15.0086 40.6727 15.9194ZM31.8251 8.06047V11.3449H35.4379C35.7528 11.3449 36.0339 11.2839 36.281 11.1587C36.5282 11.0334 36.7212 10.8505 36.8668 10.6C37.009 10.3528 37.0835 10.0514 37.0835 9.6993C37.0835 9.3607 37.0192 9.0695 36.8871 8.82909C36.7585 8.58869 36.579 8.39907 36.3522 8.26025C36.1253 8.1248 35.8612 8.05369 35.5632 8.05369H31.8251V8.06047ZM37.6151 15.3742C37.6151 15.0492 37.5474 14.7512 37.4086 14.4837C37.2732 14.2162 37.0869 14.0029 36.8533 13.8472C36.6196 13.6914 36.3386 13.6135 36.0102 13.6135H31.8217V17.074H35.868C36.2099 17.074 36.5147 16.9961 36.7822 16.8404C37.0497 16.6846 37.2528 16.4815 37.3984 16.2343C37.5406 15.9871 37.6151 15.6993 37.6151 15.3742ZM53.7325 16.9961V19.4984H43.5677V5.61578H53.5463V8.11803H46.5644V11.2467H52.5813V13.5932H46.5644V16.9961H53.7325ZM56.6682 19.4984V5.61578H62.868C63.5384 5.61578 64.158 5.75121 64.7269 6.01532C65.2957 6.28282 65.7901 6.63496 66.2167 7.07175C66.64 7.50855 66.9684 8.0063 67.202 8.56837C67.4357 9.13045 67.5508 9.69591 67.5508 10.2681C67.5508 11.0503 67.3544 11.7952 66.965 12.5063C66.5756 13.2174 66.044 13.7896 65.3736 14.2264C64.7032 14.6632 63.9007 14.8799 62.9729 14.8799H59.6682V19.495H56.6682V19.4984ZM59.6648 12.4013H62.7867C63.1016 12.4013 63.3894 12.3167 63.6501 12.1474C63.9109 11.9781 64.1174 11.7309 64.2766 11.4058C64.4323 11.0808 64.5136 10.7016 64.5136 10.2715C64.5136 9.80088 64.4221 9.40809 64.2359 9.08981C64.0497 8.77153 63.8228 8.52774 63.5485 8.36521C63.2743 8.20268 62.9797 8.12142 62.6648 8.12142H59.6682V12.4013H59.6648Z" fill="white"/>
<path d="M149.563 24.0625H72.2336V0.0625H149.563V24.0625ZM74.7223 21.5704H147.071V2.55121H74.7223V21.5704ZM78.3826 19.0038V5.12119H90.3115V19.0038H87.3149V7.62345H81.3826V19.0038H78.3826ZM93.3081 19.0038V5.12119H99.5079C100.178 5.12119 100.798 5.25663 101.367 5.52074C101.936 5.78823 102.43 6.14038 102.857 6.57717C103.28 7.01397 103.608 7.5117 103.842 8.07378C104.076 8.63586 104.191 9.20133 104.191 9.77356C104.191 10.5557 103.994 11.3006 103.605 12.0117C103.216 12.7228 102.684 13.295 102.014 13.7318C101.343 14.1686 100.541 14.3853 99.6129 14.3853H96.3081V19.0004H93.3081V19.0038ZM96.3081 11.9067H99.43C99.7449 11.9067 100.033 11.8221 100.293 11.6528C100.554 11.4835 100.761 11.2363 100.92 10.9113C101.076 10.5862 101.157 10.207 101.157 9.77695C101.157 9.3063 101.065 8.91351 100.879 8.59523C100.693 8.27694 100.466 8.03316 100.192 7.87063C99.9176 7.7081 99.623 7.62684 99.3081 7.62684H96.3115V11.9067H96.3081ZM116.265 16.5016V19.0038H106.1V5.12119H116.079V7.62345H109.097V10.7521H115.114V13.0986H109.097V16.5016H116.265ZM117.332 11.9237C117.332 11.0907 117.491 10.2645 117.816 9.44851C118.138 8.63248 118.608 7.89094 119.231 7.22051C119.854 6.55008 120.61 6.0151 121.5 5.61555C122.391 5.21938 123.403 5.01961 124.537 5.01961C125.892 5.01961 127.063 5.30065 128.049 5.85934C129.034 6.42142 129.772 7.14941 130.266 8.05009L127.947 9.57379C127.713 9.05234 127.405 8.64602 127.023 8.35144C126.64 8.05685 126.224 7.85369 125.78 7.73518C125.336 7.61667 124.893 7.55911 124.456 7.55911C123.772 7.55911 123.173 7.69117 122.658 7.95189C122.143 8.21261 121.717 8.55798 121.375 8.98801C121.033 9.41803 120.779 9.90222 120.616 10.4338C120.45 10.9688 120.369 11.497 120.369 12.0185C120.369 12.6178 120.467 13.19 120.667 13.7386C120.867 14.2871 121.144 14.7679 121.51 15.1844C121.872 15.6009 122.306 15.9327 122.814 16.1833C123.318 16.4304 123.887 16.5557 124.517 16.5557C124.954 16.5557 125.401 16.488 125.851 16.3492C126.301 16.2137 126.721 15.9903 127.104 15.6855C127.486 15.3808 127.781 14.9846 127.988 14.5038L130.473 15.8718C130.172 16.549 129.698 17.1313 129.047 17.6122C128.397 18.093 127.666 18.4621 126.85 18.716C126.034 18.97 125.231 19.0986 124.439 19.0986C123.4 19.0986 122.441 18.8921 121.564 18.4824C120.687 18.0727 119.936 17.5241 119.306 16.8402C118.676 16.1562 118.192 15.3876 117.847 14.5343C117.505 13.681 117.332 12.8108 117.332 11.9237ZM131.231 11.9237C131.231 11.0907 131.391 10.2645 131.716 9.44851C132.037 8.63248 132.508 7.89094 133.131 7.22051C133.754 6.55008 134.509 6.0151 135.4 5.61555C136.29 5.21938 137.303 5.01961 138.437 5.01961C139.791 5.01961 140.963 5.30065 141.948 5.85934C142.933 6.42142 143.672 7.14941 144.166 8.05009L141.847 9.57379C141.613 9.05234 141.305 8.64602 140.922 8.35144C140.54 8.05685 140.123 7.85369 139.679 7.73518C139.236 7.61667 138.792 7.55911 138.356 7.55911C137.672 7.55911 137.072 7.69117 136.558 7.95189C136.043 8.21261 135.616 8.55798 135.274 8.98801C134.932 9.41803 134.678 9.90222 134.516 10.4338C134.35 10.9688 134.269 11.497 134.269 12.0185C134.269 12.6178 134.367 13.19 134.567 13.7386C134.766 14.2871 135.044 14.7679 135.41 15.1844C135.772 15.6009 136.205 15.9327 136.713 16.1833C137.218 16.4304 137.787 16.5557 138.416 16.5557C138.853 16.5557 139.3 16.488 139.751 16.3492C140.201 16.2104 140.621 15.9903 141.003 15.6855C141.386 15.3808 141.681 14.9846 141.887 14.5038L144.372 15.8718C144.071 16.549 143.597 17.1313 142.947 17.6122C142.297 18.093 141.565 18.4621 140.749 18.716C139.933 18.97 139.131 19.0986 138.339 19.0986C137.299 19.0986 136.341 18.8921 135.464 18.4824C134.587 18.0727 133.835 17.5241 133.205 16.8402C132.576 16.1562 132.088 15.3876 131.746 14.5343C131.404 13.681 131.231 12.8108 131.231 11.9237Z" fill="white"/>
</g>
<defs>
<clipPath id="clip0_480_67717">
<rect width="149.563" height="24" fill="white" transform="translate(0 0.0625)"/>
</clipPath>
</defs>
</svg>
