<svg width="110" height="44" viewBox="0 0 110 44" fill="none" xmlns="http://www.w3.org/2000/svg">
<path d="M46 26H51V17.6667H58.3333V26H63.3333V13L54.6667 6.5L46 13V26ZM46 28C45.4444 28 44.9722 27.8056 44.5833 27.4167C44.1944 27.0278 44 26.5556 44 26V13C44 12.6889 44.0722 12.3889 44.2167 12.1C44.3611 11.8111 44.5556 11.5778 44.8 11.4L53.4667 4.9C53.6444 4.76667 53.8333 4.66667 54.0333 4.6C54.2333 4.53333 54.4444 4.5 54.6667 4.5C54.8889 4.5 55.1 4.53333 55.3 4.6C55.5 4.66667 55.6889 4.76667 55.8667 4.9L64.5333 11.4C64.7778 11.5778 64.9722 11.8111 65.1167 12.1C65.2611 12.3889 65.3333 12.6889 65.3333 13V26C65.3333 26.5556 65.1389 27.0278 64.75 27.4167C64.3611 27.8056 63.8889 28 63.3333 28H56.3333V19.6667H53V28H46Z" fill="#0E0E0E"/>
<path d="M36.2163 33.2727V34.794H32.2703V42H30.4251V33.2727H36.2163ZM36.9802 42L36.9717 40.5597H37.189C37.3424 40.5597 37.4745 40.5227 37.5853 40.4489C37.6989 40.3722 37.7927 40.2486 37.8666 40.0781C37.9404 39.9077 37.9987 39.6818 38.0413 39.4006C38.0839 39.1165 38.1123 38.767 38.1265 38.3523L38.233 35.4545H43.2103V42H41.4802V36.8821H39.8651L39.7629 38.8807C39.7373 39.429 39.6705 39.9006 39.5626 40.2955C39.4575 40.6903 39.3112 41.0142 39.1237 41.267C38.9362 41.517 38.7103 41.7017 38.4461 41.821C38.1819 41.9403 37.8751 42 37.5256 42H36.9802ZM46.4841 42.1236C46.0665 42.1236 45.6943 42.0511 45.3676 41.9062C45.0409 41.7585 44.7824 41.5412 44.5921 41.2543C44.4046 40.9645 44.3108 40.6037 44.3108 40.1719C44.3108 39.8082 44.3776 39.5028 44.5111 39.2557C44.6446 39.0085 44.8264 38.8097 45.0565 38.6591C45.2867 38.5085 45.548 38.3949 45.8406 38.3182C46.1361 38.2415 46.4457 38.1875 46.7696 38.1562C47.1503 38.1165 47.4571 38.0795 47.6901 38.0455C47.923 38.0085 48.0921 37.9545 48.1972 37.8835C48.3023 37.8125 48.3548 37.7074 48.3548 37.5682V37.5426C48.3548 37.2727 48.2696 37.0639 48.0992 36.9162C47.9315 36.7685 47.6929 36.6946 47.3832 36.6946C47.0565 36.6946 46.7966 36.767 46.6034 36.9119C46.4102 37.054 46.2824 37.233 46.2199 37.4489L44.5409 37.3125C44.6261 36.9148 44.7938 36.571 45.0438 36.2812C45.2938 35.9886 45.6162 35.7642 46.0111 35.608C46.4088 35.4489 46.869 35.3693 47.3918 35.3693C47.7554 35.3693 48.1034 35.4119 48.4358 35.4972C48.771 35.5824 49.0679 35.7145 49.3264 35.8935C49.5878 36.0724 49.7938 36.3026 49.9443 36.5838C50.0949 36.8622 50.1702 37.196 50.1702 37.5852V42H48.4486V41.0923H48.3974C48.2923 41.2969 48.1517 41.4773 47.9756 41.6335C47.7994 41.7869 47.5878 41.9077 47.3406 41.9957C47.0935 42.081 46.808 42.1236 46.4841 42.1236ZM47.004 40.8707C47.271 40.8707 47.5068 40.8182 47.7114 40.7131C47.9159 40.6051 48.0764 40.4602 48.1929 40.2784C48.3094 40.0966 48.3676 39.8906 48.3676 39.6605V38.9659C48.3108 39.0028 48.2327 39.0369 48.1332 39.0682C48.0367 39.0966 47.9273 39.1236 47.8051 39.1491C47.683 39.1719 47.5608 39.1932 47.4386 39.2131C47.3165 39.2301 47.2057 39.2457 47.1063 39.2599C46.8932 39.2912 46.7071 39.3409 46.548 39.4091C46.3889 39.4773 46.2653 39.5696 46.1773 39.6861C46.0892 39.7997 46.0452 39.9418 46.0452 40.1122C46.0452 40.3594 46.1347 40.5483 46.3136 40.679C46.4955 40.8068 46.7256 40.8707 47.004 40.8707ZM51.5786 42V35.4545H54.3698C55.1766 35.4545 55.8144 35.608 56.2831 35.9148C56.7519 36.2216 56.9862 36.6577 56.9862 37.223C56.9862 37.5781 56.8541 37.8736 56.5899 38.1094C56.3257 38.3452 55.9592 38.5043 55.4905 38.5866C55.8825 38.6151 56.2163 38.7045 56.4919 38.8551C56.7703 39.0028 56.982 39.1946 57.1269 39.4304C57.2746 39.6662 57.3484 39.9276 57.3484 40.2145C57.3484 40.5866 57.249 40.9062 57.0501 41.1733C56.8541 41.4403 56.5658 41.6449 56.1851 41.7869C55.8073 41.929 55.3456 42 54.8001 42H51.5786ZM53.2703 40.6406H54.8001C55.053 40.6406 55.2504 40.581 55.3925 40.4616C55.5374 40.3395 55.6098 40.1733 55.6098 39.9631C55.6098 39.7301 55.5374 39.5469 55.3925 39.4134C55.2504 39.2798 55.053 39.2131 54.8001 39.2131H53.2703V40.6406ZM53.2703 38.1477H54.4081C54.5899 38.1477 54.7448 38.1222 54.8726 38.071C55.0033 38.017 55.1027 37.9403 55.1709 37.8409C55.2419 37.7415 55.2774 37.6236 55.2774 37.4872C55.2774 37.2855 55.1965 37.1278 55.0345 37.0142C54.8726 36.9006 54.651 36.8438 54.3698 36.8438H53.2703V38.1477ZM63.048 38.0028V39.4304H59.6304V38.0028H63.048ZM60.227 35.4545V42H58.4926V35.4545H60.227ZM64.1858 35.4545V42H62.4642V35.4545H64.1858ZM67.4607 42.1236C67.043 42.1236 66.6709 42.0511 66.3442 41.9062C66.0175 41.7585 65.759 41.5412 65.5686 41.2543C65.3811 40.9645 65.2874 40.6037 65.2874 40.1719C65.2874 39.8082 65.3541 39.5028 65.4876 39.2557C65.6212 39.0085 65.803 38.8097 66.0331 38.6591C66.2632 38.5085 66.5246 38.3949 66.8172 38.3182C67.1126 38.2415 67.4223 38.1875 67.7462 38.1562C68.1269 38.1165 68.4337 38.0795 68.6666 38.0455C68.8996 38.0085 69.0686 37.9545 69.1737 37.8835C69.2788 37.8125 69.3314 37.7074 69.3314 37.5682V37.5426C69.3314 37.2727 69.2462 37.0639 69.0757 36.9162C68.9081 36.7685 68.6695 36.6946 68.3598 36.6946C68.0331 36.6946 67.7732 36.767 67.58 36.9119C67.3868 37.054 67.259 37.233 67.1965 37.4489L65.5175 37.3125C65.6027 36.9148 65.7703 36.571 66.0203 36.2812C66.2703 35.9886 66.5928 35.7642 66.9876 35.608C67.3854 35.4489 67.8456 35.3693 68.3683 35.3693C68.732 35.3693 69.08 35.4119 69.4124 35.4972C69.7476 35.5824 70.0445 35.7145 70.303 35.8935C70.5644 36.0724 70.7703 36.3026 70.9209 36.5838C71.0715 36.8622 71.1467 37.196 71.1467 37.5852V42H69.4251V41.0923H69.374C69.2689 41.2969 69.1283 41.4773 68.9521 41.6335C68.776 41.7869 68.5644 41.9077 68.3172 41.9957C68.07 42.081 67.7845 42.1236 67.4607 42.1236ZM67.9805 40.8707C68.2476 40.8707 68.4834 40.8182 68.6879 40.7131C68.8925 40.6051 69.053 40.4602 69.1695 40.2784C69.2859 40.0966 69.3442 39.8906 69.3442 39.6605V38.9659C69.2874 39.0028 69.2092 39.0369 69.1098 39.0682C69.0132 39.0966 68.9038 39.1236 68.7817 39.1491C68.6595 39.1719 68.5374 39.1932 68.4152 39.2131C68.293 39.2301 68.1823 39.2457 68.0828 39.2599C67.8698 39.2912 67.6837 39.3409 67.5246 39.4091C67.3655 39.4773 67.2419 39.5696 67.1538 39.6861C67.0658 39.7997 67.0217 39.9418 67.0217 40.1122C67.0217 40.3594 67.1112 40.5483 67.2902 40.679C67.472 40.8068 67.7021 40.8707 67.9805 40.8707ZM76.3903 42V36.8778H75.1631C74.8307 36.8778 74.5778 36.9545 74.4046 37.108C74.2313 37.2614 74.146 37.4432 74.1489 37.6534C74.146 37.8665 74.2284 38.0469 74.396 38.1946C74.5665 38.3395 74.8165 38.4119 75.146 38.4119H76.9955V39.6392H75.146C74.5864 39.6392 74.102 39.554 73.6929 39.3835C73.2838 39.2131 72.9685 38.9759 72.7469 38.6719C72.5253 38.3651 72.4159 38.0085 72.4188 37.6023C72.4159 37.1761 72.5253 36.8026 72.7469 36.4815C72.9685 36.1577 73.2852 35.9062 73.6972 35.7273C74.1119 35.5455 74.6006 35.4545 75.1631 35.4545H78.0821V42H76.3903ZM72.2313 42L74.0509 38.5909H75.7852L73.9699 42H72.2313Z" fill="#0E0E0E"/>
</svg>
