<svg width="16" height="14" viewBox="0 0 16 14" fill="none" xmlns="http://www.w3.org/2000/svg">
<path d="M5.4166 13.1854C4.98327 13.1854 4.61382 13.0354 4.30827 12.7354C4.00271 12.4354 3.84994 12.0632 3.84994 11.6188V4.81877C3.84994 4.61877 3.88605 4.42433 3.95827 4.23544C4.03049 4.04655 4.14438 3.87433 4.29993 3.71877L6.94994 0.88544C7.18327 0.640995 7.46105 0.482662 7.78327 0.41044C8.10549 0.338217 8.41105 0.374329 8.69994 0.518773C8.97771 0.652106 9.18327 0.871551 9.3166 1.17711C9.44994 1.48266 9.47771 1.80766 9.39994 2.15211L8.98327 4.18544H14.0666C14.4777 4.18544 14.8444 4.34655 15.1666 4.66877C15.4888 4.991 15.6499 5.35211 15.6499 5.75211V6.36877C15.6499 6.51322 15.6305 6.67711 15.5916 6.86044C15.5527 7.04377 15.5055 7.19655 15.4499 7.31877L13.4499 12.0021C13.3166 12.3354 13.0833 12.616 12.7499 12.8438C12.4166 13.0716 12.0666 13.1854 11.6999 13.1854H5.4166ZM1.79993 13.1854C1.51105 13.1854 1.2666 13.0854 1.0666 12.8854C0.866602 12.6854 0.766602 12.441 0.766602 12.1521V5.21877C0.766602 4.941 0.861046 4.69933 1.04993 4.49377C1.23882 4.28822 1.47771 4.18544 1.7666 4.18544H1.8166C2.09438 4.18544 2.33605 4.28822 2.5416 4.49377C2.74716 4.69933 2.84994 4.941 2.84994 5.21877V12.1521C2.84994 12.441 2.74716 12.6854 2.5416 12.8854C2.33605 13.0854 2.09438 13.1854 1.8166 13.1854H1.79993Z" fill="#7C7C7C"/>
</svg>
