<svg width="110" height="44" viewBox="0 0 110 44" fill="none" xmlns="http://www.w3.org/2000/svg">
<path d="M45 28C44.4667 28 44 27.8 43.6 27.4C43.2 27 43 26.5333 43 26V6C43 5.46667 43.2 5 43.6 4.6C44 4.2 44.4667 4 45 4H60.4L67 10.6V26C67 26.5333 66.8 27 66.4 27.4C66 27.8 65.5333 28 65 28H45ZM45 26H65V11.7H60.3C60.0111 11.7 59.7722 11.6056 59.5833 11.4167C59.3944 11.2278 59.3 10.9889 59.3 10.7V6H45V26ZM49.3 22.3H60.7C60.9889 22.3 61.2278 22.2056 61.4167 22.0167C61.6056 21.8278 61.7 21.5889 61.7 21.3C61.7 21.0111 61.6056 20.7722 61.4167 20.5833C61.2278 20.3944 60.9889 20.3 60.7 20.3H49.3C49.0111 20.3 48.7722 20.3944 48.5833 20.5833C48.3944 20.7722 48.3 21.0111 48.3 21.3C48.3 21.5889 48.3944 21.8278 48.5833 22.0167C48.7722 22.2056 49.0111 22.3 49.3 22.3ZM49.3 11.7H54C54.2889 11.7 54.5278 11.6056 54.7167 11.4167C54.9056 11.2278 55 10.9889 55 10.7C55 10.4111 54.9056 10.1722 54.7167 9.98333C54.5278 9.79445 54.2889 9.7 54 9.7H49.3C49.0111 9.7 48.7722 9.79445 48.5833 9.98333C48.3944 10.1722 48.3 10.4111 48.3 10.7C48.3 10.9889 48.3944 11.2278 48.5833 11.4167C48.7722 11.6056 49.0111 11.7 49.3 11.7ZM49.3 17H60.7C60.9889 17 61.2278 16.9056 61.4167 16.7167C61.6056 16.5278 61.7 16.2889 61.7 16C61.7 15.7111 61.6056 15.4722 61.4167 15.2833C61.2278 15.0944 60.9889 15 60.7 15H49.3C49.0111 15 48.7722 15.0944 48.5833 15.2833C48.3944 15.4722 48.3 15.7111 48.3 16C48.3 16.2889 48.3944 16.5278 48.5833 16.7167C48.7722 16.9056 49.0111 17 49.3 17ZM45 6V11.7V6V26V6Z" fill="#0E0E0E"/>
<path d="M7.28551 42V40.517L7.53267 40.4957C7.85085 40.4702 8.10795 40.3494 8.30398 40.1335C8.5 39.9148 8.64631 39.5668 8.7429 39.0895C8.84233 38.6094 8.90625 37.9645 8.93466 37.1548L9.07955 33.2727H15.0028V42H13.2088V34.7514H10.7926L10.6562 37.7898C10.6108 38.767 10.4943 39.5653 10.3068 40.1847C10.1222 40.804 9.8267 41.2614 9.42045 41.5568C9.01705 41.8523 8.46449 42 7.76278 42H7.28551ZM19.473 42.1278C18.7997 42.1278 18.2202 41.9915 17.7344 41.7188C17.2514 41.4432 16.8793 41.054 16.6179 40.5511C16.3565 40.0455 16.2259 39.4474 16.2259 38.7571C16.2259 38.0838 16.3565 37.4929 16.6179 36.9844C16.8793 36.4759 17.2472 36.0795 17.7216 35.7955C18.1989 35.5114 18.7585 35.3693 19.4006 35.3693C19.8324 35.3693 20.2344 35.4389 20.6065 35.5781C20.9815 35.7145 21.3082 35.9205 21.5866 36.196C21.8679 36.4716 22.0866 36.8182 22.2429 37.2358C22.3991 37.6506 22.4773 38.1364 22.4773 38.6932V39.1918H16.9503V38.0668H20.7685C20.7685 37.8054 20.7116 37.5739 20.598 37.3722C20.4844 37.1705 20.3267 37.0128 20.125 36.8991C19.9261 36.7827 19.6946 36.7244 19.4304 36.7244C19.1548 36.7244 18.9105 36.7884 18.6974 36.9162C18.4872 37.0412 18.3224 37.2102 18.2031 37.4233C18.0838 37.6335 18.0227 37.8679 18.0199 38.1264V39.196C18.0199 39.5199 18.0795 39.7997 18.1989 40.0355C18.321 40.2713 18.4929 40.4531 18.7145 40.581C18.9361 40.7088 19.1989 40.7727 19.5028 40.7727C19.7045 40.7727 19.8892 40.7443 20.0568 40.6875C20.2244 40.6307 20.3679 40.5455 20.4872 40.4318C20.6065 40.3182 20.6974 40.179 20.7599 40.0142L22.4389 40.125C22.3537 40.5284 22.179 40.8807 21.9148 41.1818C21.6534 41.4801 21.3153 41.7131 20.9006 41.8807C20.4886 42.0455 20.0128 42.1278 19.473 42.1278ZM28.2173 38.0028V39.4304H24.7997V38.0028H28.2173ZM25.3963 35.4545V42H23.6619V35.4545H25.3963ZM29.3551 35.4545V42H27.6335V35.4545H29.3551ZM30.1062 36.8821V35.4545H36.038V36.8821H33.9286V42H32.1985V36.8821H30.1062ZM38.7706 42.1236C38.353 42.1236 37.9808 42.0511 37.6541 41.9062C37.3274 41.7585 37.0689 41.5412 36.8786 41.2543C36.6911 40.9645 36.5973 40.6037 36.5973 40.1719C36.5973 39.8082 36.6641 39.5028 36.7976 39.2557C36.9311 39.0085 37.1129 38.8097 37.343 38.6591C37.5732 38.5085 37.8345 38.3949 38.1271 38.3182C38.4226 38.2415 38.7322 38.1875 39.0561 38.1562C39.4368 38.1165 39.7436 38.0795 39.9766 38.0455C40.2095 38.0085 40.3786 37.9545 40.4837 37.8835C40.5888 37.8125 40.6413 37.7074 40.6413 37.5682V37.5426C40.6413 37.2727 40.5561 37.0639 40.3857 36.9162C40.218 36.7685 39.9794 36.6946 39.6697 36.6946C39.343 36.6946 39.0831 36.767 38.8899 36.9119C38.6967 37.054 38.5689 37.233 38.5064 37.4489L36.8274 37.3125C36.9126 36.9148 37.0803 36.571 37.3303 36.2812C37.5803 35.9886 37.9027 35.7642 38.2976 35.608C38.6953 35.4489 39.1555 35.3693 39.6783 35.3693C40.0419 35.3693 40.3899 35.4119 40.7223 35.4972C41.0575 35.5824 41.3544 35.7145 41.6129 35.8935C41.8743 36.0724 42.0803 36.3026 42.2308 36.5838C42.3814 36.8622 42.4567 37.196 42.4567 37.5852V42H40.7351V41.0923H40.6839C40.5788 41.2969 40.4382 41.4773 40.2621 41.6335C40.0859 41.7869 39.8743 41.9077 39.6271 41.9957C39.38 42.081 39.0945 42.1236 38.7706 42.1236ZM39.2905 40.8707C39.5575 40.8707 39.7933 40.8182 39.9979 40.7131C40.2024 40.6051 40.3629 40.4602 40.4794 40.2784C40.5959 40.0966 40.6541 39.8906 40.6541 39.6605V38.9659C40.5973 39.0028 40.5192 39.0369 40.4197 39.0682C40.3232 39.0966 40.2138 39.1236 40.0916 39.1491C39.9695 39.1719 39.8473 39.1932 39.7251 39.2131C39.603 39.2301 39.4922 39.2457 39.3928 39.2599C39.1797 39.2912 38.9936 39.3409 38.8345 39.4091C38.6754 39.4773 38.5518 39.5696 38.4638 39.6861C38.3757 39.7997 38.3317 39.9418 38.3317 40.1122C38.3317 40.3594 38.4212 40.5483 38.6001 40.679C38.782 40.8068 39.0121 40.8707 39.2905 40.8707ZM51.1978 38.0028V39.4304H47.7802V38.0028H51.1978ZM48.3768 35.4545V42H46.6424V35.4545H48.3768ZM52.3356 35.4545V42H50.614V35.4545H52.3356ZM56.7013 42.1278C56.0394 42.1278 55.467 41.9872 54.984 41.706C54.5039 41.4219 54.1332 41.027 53.8718 40.5213C53.6104 40.0128 53.4798 39.4233 53.4798 38.7528C53.4798 38.0767 53.6104 37.4858 53.8718 36.9801C54.1332 36.4716 54.5039 36.0767 54.984 35.7955C55.467 35.5114 56.0394 35.3693 56.7013 35.3693C57.3633 35.3693 57.9343 35.5114 58.4144 35.7955C58.8974 36.0767 59.2695 36.4716 59.5309 36.9801C59.7923 37.4858 59.9229 38.0767 59.9229 38.7528C59.9229 39.4233 59.7923 40.0128 59.5309 40.5213C59.2695 41.027 58.8974 41.4219 58.4144 41.706C57.9343 41.9872 57.3633 42.1278 56.7013 42.1278ZM56.7099 40.7216C57.011 40.7216 57.2624 40.6364 57.4641 40.4659C57.6658 40.2926 57.8178 40.0568 57.9201 39.7585C58.0252 39.4602 58.0778 39.1207 58.0778 38.7401C58.0778 38.3594 58.0252 38.0199 57.9201 37.7216C57.8178 37.4233 57.6658 37.1875 57.4641 37.0142C57.2624 36.8409 57.011 36.7543 56.7099 36.7543C56.4059 36.7543 56.1502 36.8409 55.9428 37.0142C55.7383 37.1875 55.5835 37.4233 55.4783 37.7216C55.3761 38.0199 55.3249 38.3594 55.3249 38.7401C55.3249 39.1207 55.3761 39.4602 55.4783 39.7585C55.5835 40.0568 55.7383 40.2926 55.9428 40.4659C56.1502 40.6364 56.4059 40.7216 56.7099 40.7216ZM61.1033 42V35.4545H63.8945C64.7013 35.4545 65.3391 35.608 65.8079 35.9148C66.2766 36.2216 66.511 36.6577 66.511 37.223C66.511 37.5781 66.3789 37.8736 66.1147 38.1094C65.8505 38.3452 65.484 38.5043 65.0153 38.5866C65.4073 38.6151 65.7411 38.7045 66.0167 38.8551C66.2951 39.0028 66.5067 39.1946 66.6516 39.4304C66.7994 39.6662 66.8732 39.9276 66.8732 40.2145C66.8732 40.5866 66.7738 40.9062 66.5749 41.1733C66.3789 41.4403 66.0906 41.6449 65.7099 41.7869C65.332 41.929 64.8704 42 64.3249 42H61.1033ZM62.7951 40.6406H64.3249C64.5778 40.6406 64.7752 40.581 64.9173 40.4616C65.0621 40.3395 65.1346 40.1733 65.1346 39.9631C65.1346 39.7301 65.0621 39.5469 64.9173 39.4134C64.7752 39.2798 64.5778 39.2131 64.3249 39.2131H62.7951V40.6406ZM62.7951 38.1477H63.9329C64.1147 38.1477 64.2695 38.1222 64.3974 38.071C64.5281 38.017 64.6275 37.9403 64.6957 37.8409C64.7667 37.7415 64.8022 37.6236 64.8022 37.4872C64.8022 37.2855 64.7212 37.1278 64.5593 37.0142C64.3974 36.9006 64.1758 36.8438 63.8945 36.8438H62.7951V38.1477ZM70.9748 42.1278C70.3129 42.1278 69.7404 41.9872 69.2575 41.706C68.7773 41.4219 68.4066 41.027 68.1452 40.5213C67.8839 40.0128 67.7532 39.4233 67.7532 38.7528C67.7532 38.0767 67.8839 37.4858 68.1452 36.9801C68.4066 36.4716 68.7773 36.0767 69.2575 35.7955C69.7404 35.5114 70.3129 35.3693 70.9748 35.3693C71.6367 35.3693 72.2077 35.5114 72.6879 35.7955C73.1708 36.0767 73.543 36.4716 73.8043 36.9801C74.0657 37.4858 74.1964 38.0767 74.1964 38.7528C74.1964 39.4233 74.0657 40.0128 73.8043 40.5213C73.543 41.027 73.1708 41.4219 72.6879 41.706C72.2077 41.9872 71.6367 42.1278 70.9748 42.1278ZM70.9833 40.7216C71.2844 40.7216 71.5359 40.6364 71.7376 40.4659C71.9393 40.2926 72.0913 40.0568 72.1935 39.7585C72.2987 39.4602 72.3512 39.1207 72.3512 38.7401C72.3512 38.3594 72.2987 38.0199 72.1935 37.7216C72.0913 37.4233 71.9393 37.1875 71.7376 37.0142C71.5359 36.8409 71.2844 36.7543 70.9833 36.7543C70.6793 36.7543 70.4237 36.8409 70.2163 37.0142C70.0117 37.1875 69.8569 37.4233 69.7518 37.7216C69.6495 38.0199 69.5984 38.3594 69.5984 38.7401C69.5984 39.1207 69.6495 39.4602 69.7518 39.7585C69.8569 40.0568 70.0117 40.2926 70.2163 40.4659C70.4237 40.6364 70.6793 40.7216 70.9833 40.7216ZM78.3342 42.1278C77.6637 42.1278 77.087 41.9858 76.604 41.7017C76.1239 41.4148 75.7546 41.017 75.4961 40.5085C75.2404 40 75.1126 39.4148 75.1126 38.7528C75.1126 38.0824 75.2418 37.4943 75.5004 36.9886C75.7617 36.4801 76.1325 36.0838 76.6126 35.7997C77.0927 35.5128 77.6637 35.3693 78.3256 35.3693C78.8967 35.3693 79.3967 35.473 79.8256 35.6804C80.2546 35.8878 80.5941 36.179 80.8441 36.554C81.0941 36.929 81.2319 37.3693 81.2575 37.875H79.5444C79.4961 37.5483 79.3683 37.2855 79.1609 37.0866C78.9563 36.8849 78.6879 36.7841 78.3555 36.7841C78.0742 36.7841 77.8285 36.8608 77.6183 37.0142C77.4109 37.1648 77.2489 37.3849 77.1325 37.6747C77.016 37.9645 76.9577 38.3153 76.9577 38.7273C76.9577 39.1449 77.0146 39.5 77.1282 39.7926C77.2447 40.0852 77.408 40.3082 77.6183 40.4616C77.8285 40.6151 78.0742 40.6918 78.3555 40.6918C78.5629 40.6918 78.7489 40.6491 78.9137 40.5639C79.0813 40.4787 79.2191 40.3551 79.3271 40.1932C79.4379 40.0284 79.5103 39.831 79.5444 39.6009H81.2575C81.229 40.1009 81.0927 40.5412 80.8484 40.9219C80.6069 41.2997 80.2731 41.5952 79.8469 41.8082C79.4208 42.0213 78.9165 42.1278 78.3342 42.1278ZM81.9734 36.8821V35.4545H87.9052V36.8821H85.7958V42H84.0657V36.8821H81.9734ZM91.7543 42.1278C91.081 42.1278 90.5014 41.9915 90.0156 41.7188C89.5327 41.4432 89.1605 41.054 88.8991 40.5511C88.6378 40.0455 88.5071 39.4474 88.5071 38.7571C88.5071 38.0838 88.6378 37.4929 88.8991 36.9844C89.1605 36.4759 89.5284 36.0795 90.0028 35.7955C90.4801 35.5114 91.0398 35.3693 91.6818 35.3693C92.1136 35.3693 92.5156 35.4389 92.8878 35.5781C93.2628 35.7145 93.5895 35.9205 93.8679 36.196C94.1491 36.4716 94.3679 36.8182 94.5241 37.2358C94.6804 37.6506 94.7585 38.1364 94.7585 38.6932V39.1918H89.2315V38.0668H93.0497C93.0497 37.8054 92.9929 37.5739 92.8793 37.3722C92.7656 37.1705 92.608 37.0128 92.4062 36.8991C92.2074 36.7827 91.9759 36.7244 91.7116 36.7244C91.4361 36.7244 91.1918 36.7884 90.9787 36.9162C90.7685 37.0412 90.6037 37.2102 90.4844 37.4233C90.3651 37.6335 90.304 37.8679 90.3011 38.1264V39.196C90.3011 39.5199 90.3608 39.7997 90.4801 40.0355C90.6023 40.2713 90.7741 40.4531 90.9957 40.581C91.2173 40.7088 91.4801 40.7727 91.7841 40.7727C91.9858 40.7727 92.1705 40.7443 92.3381 40.6875C92.5057 40.6307 92.6491 40.5455 92.7685 40.4318C92.8878 40.3182 92.9787 40.179 93.0412 40.0142L94.7202 40.125C94.6349 40.5284 94.4602 40.8807 94.196 41.1818C93.9347 41.4801 93.5966 41.7131 93.1818 41.8807C92.7699 42.0455 92.294 42.1278 91.7543 42.1278ZM97.6776 39.6051L100.034 35.4545H101.824V42H100.094V37.8366L97.7457 42H95.9432V35.4545H97.6776V39.6051ZM99.723 33.1705H100.989C100.986 33.6875 100.794 34.1037 100.413 34.419C100.036 34.7344 99.5241 34.892 98.8793 34.892C98.2315 34.892 97.7188 34.7344 97.3409 34.419C96.9631 34.1037 96.7741 33.6875 96.7741 33.1705H98.0312C98.0284 33.3665 98.0909 33.5426 98.2188 33.6989C98.3494 33.8551 98.5696 33.9332 98.8793 33.9332C99.1804 33.9332 99.3963 33.8565 99.527 33.7031C99.6577 33.5497 99.723 33.3722 99.723 33.1705Z" fill="#0E0E0E"/>
</svg>
