<svg width="250" height="40" viewBox="0 0 250 40" fill="none" xmlns="http://www.w3.org/2000/svg">
<g clip-path="url(#clip0_366_5471)">
<path d="M0.363953 20.5981C0.363953 19.2098 0.629194 17.8329 1.17096 16.4728C1.70707 15.1128 2.49149 13.8769 3.52987 12.7595C4.56824 11.6421 5.82672 10.7505 7.31092 10.0845C8.79511 9.42427 10.4825 9.09131 12.373 9.09131C14.6303 9.09131 16.5829 9.55971 18.2251 10.4909C19.8674 11.4277 21.0976 12.641 21.9215 14.1421L18.0558 16.6816C17.6664 15.8125 17.1529 15.1353 16.5152 14.6444C15.8775 14.1534 15.1834 13.8148 14.4441 13.6173C13.7048 13.4197 12.9655 13.3238 12.2376 13.3238C11.0976 13.3238 10.0987 13.5439 9.24094 13.9784C8.38315 14.413 7.67208 14.9886 7.10211 15.7053C6.53213 16.422 6.10888 17.229 5.838 18.115C5.56148 19.0067 5.42603 19.887 5.42603 20.7561C5.42603 21.755 5.58969 22.7087 5.92265 23.6229C6.25561 24.5371 6.71836 25.3385 7.32784 26.0326C7.93168 26.7267 8.65403 27.2798 9.50053 27.6974C10.3414 28.1094 11.2895 28.3182 12.3391 28.3182C13.0671 28.3182 13.812 28.2053 14.5626 27.9739C15.3132 27.7426 16.0129 27.3757 16.6506 26.8678C17.2883 26.3599 17.7793 25.6997 18.1236 24.8983L22.2658 27.1782C21.7635 28.3069 20.9734 29.2775 19.8899 30.0789C18.8064 30.8803 17.5874 31.4954 16.2274 31.9186C14.8673 32.3419 13.5299 32.5563 12.2093 32.5563C10.4768 32.5563 8.87976 32.2121 7.41813 31.5292C5.95651 30.8464 4.70368 29.9322 3.65402 28.7922C2.60436 27.6523 1.79172 26.3712 1.22174 24.9491C0.646122 23.5213 0.363953 22.071 0.363953 20.5981ZM43.513 28.2222V32.3927H26.5716V9.25497H43.2026V13.4254H31.566V18.6399H41.5942V22.5507H31.566V28.2222H43.513ZM68.1518 26.4277C68.1518 27.7313 67.7906 28.8204 67.0739 29.7008C66.3572 30.5812 65.3922 31.2471 64.1845 31.7042C62.9768 32.1613 61.6281 32.387 60.1439 32.387H48.4057V9.24932H61.5829C62.7229 9.24932 63.7105 9.53713 64.5457 10.1128C65.3809 10.6884 66.0186 11.4333 66.4644 12.3475C66.9103 13.2617 67.1303 14.2042 67.1303 15.1805C67.1303 16.2696 66.8313 17.308 66.2387 18.3069C65.6462 19.3058 64.7771 20.045 63.6371 20.5247C65.031 20.9141 66.1315 21.6139 66.9385 22.6241C67.7455 23.6455 68.1518 24.9096 68.1518 26.4277ZM53.4057 13.3295V18.8035H59.4272C59.952 18.8035 60.4204 18.7019 60.8324 18.4931C61.2443 18.2843 61.566 17.9796 61.8087 17.562C62.0457 17.15 62.1699 16.6477 62.1699 16.0608C62.1699 15.4965 62.0626 15.0112 61.8425 14.6105C61.6281 14.2098 61.329 13.8938 60.9509 13.6624C60.5728 13.4367 60.1326 13.3182 59.636 13.3182H53.4057V13.3295ZM63.0559 25.5191C63.0559 24.9773 62.943 24.4807 62.7116 24.0349C62.4859 23.5891 62.1755 23.2335 61.7861 22.9739C61.3967 22.7143 60.9283 22.5845 60.3809 22.5845H53.4001V28.352H60.1439C60.7139 28.352 61.2218 28.2222 61.6676 27.9626C62.1134 27.7031 62.452 27.3644 62.6947 26.9525C62.9317 26.5405 63.0559 26.0608 63.0559 25.5191ZM89.9182 28.2222V32.3927H72.9769V9.25497H89.6078V13.4254H77.9712V18.6399H87.9994V22.5507H77.9712V28.2222H89.9182ZM94.811 32.3927V9.25497H105.144C106.261 9.25497 107.294 9.4807 108.242 9.92088C109.19 10.3667 110.014 10.9536 110.725 11.6816C111.431 12.4096 111.978 13.2392 112.367 14.176C112.757 15.1128 112.949 16.0552 112.949 17.0089C112.949 18.3125 112.621 19.5541 111.972 20.7392C111.323 21.9243 110.437 22.878 109.32 23.606C108.203 24.334 106.865 24.6951 105.319 24.6951H99.811V32.387H94.811V32.3927ZM99.8053 20.5642H105.008C105.533 20.5642 106.013 20.4232 106.448 20.141C106.882 19.8588 107.226 19.4469 107.492 18.9051C107.751 18.3633 107.887 17.7313 107.887 17.0146C107.887 16.2301 107.734 15.5755 107.424 15.045C107.113 14.5146 106.735 14.1082 106.278 13.8374C105.821 13.5665 105.33 13.431 104.805 13.431H99.811V20.5642H99.8053Z" fill="white"/>
<path d="M249.636 40H120.753V0H249.636V40ZM124.901 35.8465H245.483V4.14784H124.901V35.8465ZM131.002 31.5689V8.43116H150.883V31.5689H145.889V12.6016H136.002V31.5689H131.002ZM155.878 31.5689V8.43116H166.211C167.328 8.43116 168.361 8.65689 169.309 9.09707C170.257 9.54289 171.081 10.1298 171.792 10.8578C172.497 11.5858 173.045 12.4153 173.434 13.3521C173.823 14.2889 174.015 15.2314 174.015 16.1851C174.015 17.4887 173.688 18.7302 173.039 19.9153C172.39 21.1004 171.504 22.0542 170.387 22.7822C169.269 23.5102 167.932 23.8713 166.385 23.8713H160.878V31.5632H155.878V31.5689ZM160.878 19.7404H166.081C166.606 19.7404 167.085 19.5993 167.52 19.3172C167.954 19.035 168.299 18.623 168.564 18.0813C168.823 17.5395 168.959 16.9075 168.959 16.1908C168.959 15.4063 168.806 14.7517 168.496 14.2212C168.186 13.6907 167.808 13.2844 167.35 13.0135C166.893 12.7427 166.402 12.6072 165.878 12.6072H160.883V19.7404H160.878ZM194.139 27.3984V31.5689H177.198V8.43116H193.829V12.6016H182.192V17.816H192.221V21.7269H182.192V27.3984H194.139ZM195.917 19.7686C195.917 18.3804 196.182 17.0034 196.724 15.6433C197.26 14.2833 198.045 13.0474 199.083 11.93C200.121 10.8126 201.38 9.92099 202.864 9.25508C204.348 8.59481 206.036 8.26184 207.926 8.26184C210.183 8.26184 212.136 8.73025 213.778 9.6614C215.42 10.5982 216.651 11.8115 217.475 13.3126L213.609 15.8521C213.22 14.9831 212.706 14.3059 212.068 13.8149C211.431 13.3239 210.737 12.9853 209.997 12.7878C209.258 12.5903 208.519 12.4944 207.791 12.4944C206.651 12.4944 205.652 12.7144 204.794 13.149C203.936 13.5835 203.225 14.1591 202.655 14.8758C202.085 15.5925 201.662 16.3995 201.391 17.2855C201.115 18.1772 200.979 19.0576 200.979 19.9266C200.979 20.9255 201.143 21.8792 201.476 22.7935C201.809 23.7077 202.271 24.509 202.881 25.2032C203.485 25.8973 204.207 26.4503 205.054 26.8679C205.895 27.2799 206.843 27.4887 207.892 27.4887C208.62 27.4887 209.365 27.3758 210.116 27.1445C210.866 26.9187 211.566 26.5463 212.204 26.0384C212.841 25.5305 213.332 24.8702 213.677 24.0689L217.819 26.3488C217.317 27.4774 216.527 28.4481 215.443 29.2494C214.36 30.0508 213.141 30.6659 211.781 31.0892C210.42 31.5124 209.083 31.7269 207.762 31.7269C206.03 31.7269 204.433 31.3826 202.971 30.6998C201.51 30.0169 200.257 29.1027 199.207 27.9628C198.158 26.8228 197.35 25.5418 196.775 24.1196C196.205 22.6975 195.917 21.2472 195.917 19.7686ZM219.083 19.7686C219.083 18.3804 219.348 17.0034 219.89 15.6433C220.426 14.2833 221.211 13.0474 222.249 11.93C223.287 10.8126 224.546 9.92099 226.03 9.25508C227.514 8.59481 229.202 8.26184 231.092 8.26184C233.349 8.26184 235.302 8.73025 236.944 9.6614C238.586 10.5982 239.817 11.8115 240.641 13.3126L236.775 15.8521C236.385 14.9831 235.872 14.3059 235.234 13.8149C234.597 13.3239 233.902 12.9853 233.163 12.7878C232.424 12.5903 231.685 12.4944 230.957 12.4944C229.817 12.4944 228.818 12.7144 227.96 13.149C227.102 13.5835 226.391 14.1591 225.821 14.8758C225.251 15.5925 224.828 16.3995 224.557 17.2855C224.281 18.1772 224.145 19.0576 224.145 19.9266C224.145 20.9255 224.309 21.8792 224.642 22.7935C224.975 23.7077 225.437 24.509 226.047 25.2032C226.651 25.8973 227.373 26.4503 228.22 26.8679C229.06 27.2799 230.009 27.4887 231.058 27.4887C231.786 27.4887 232.531 27.3758 233.282 27.1445C234.032 26.9131 234.732 26.5463 235.37 26.0384C236.007 25.5305 236.498 24.8702 236.843 24.0689L240.985 26.3488C240.483 27.4774 239.692 28.4481 238.609 29.2494C237.525 30.0508 236.306 30.6659 234.946 31.0892C233.586 31.5124 232.249 31.7269 230.928 31.7269C229.196 31.7269 227.599 31.3826 226.137 30.6998C224.676 30.0169 223.423 29.1027 222.373 27.9628C221.323 26.8228 220.511 25.5418 219.941 24.1196C219.371 22.6975 219.083 21.2472 219.083 19.7686Z" fill="white"/>
</g>
<defs>
<clipPath id="clip0_366_5471">
<rect width="249.272" height="40" fill="white" transform="translate(0.363953)"/>
</clipPath>
</defs>
</svg>
