<svg width="188" height="30" viewBox="0 0 188 30" fill="none" xmlns="http://www.w3.org/2000/svg">
<g clip-path="url(#clip0_466_63238)">
<path d="M0.522949 15.4484C0.522949 14.4073 0.72188 13.3745 1.1282 12.3545C1.53029 11.3345 2.1186 10.4075 2.89739 9.56949C3.67617 8.73145 4.62002 8.06272 5.73317 7.56328C6.84632 7.06808 8.11184 6.81836 9.52973 6.81836C11.2227 6.81836 12.6872 7.16966 13.9188 7.86803C15.1505 8.57062 16.0732 9.48061 16.6911 10.6065L13.7919 12.5111C13.4998 11.8593 13.1147 11.3514 12.6364 10.9831C12.1581 10.6149 11.6375 10.361 11.0831 10.2128C10.5286 10.0647 9.97414 9.99274 9.42815 9.99274C8.57318 9.99274 7.82403 10.1578 7.18069 10.4837C6.53735 10.8096 6.00405 11.2413 5.57656 11.7789C5.14908 12.3164 4.83165 12.9216 4.62849 13.5861C4.42109 14.2549 4.31951 14.9152 4.31951 15.567C4.31951 16.3161 4.44225 17.0314 4.69197 17.7171C4.94169 18.4027 5.28876 19.0037 5.74587 19.5243C6.19875 20.0449 6.7405 20.4597 7.37538 20.7729C8.00602 21.0819 8.71708 21.2385 9.50433 21.2385C10.0503 21.2385 10.609 21.1539 11.1719 20.9803C11.7349 20.8068 12.2597 20.5317 12.738 20.1508C13.2162 19.7698 13.5845 19.2746 13.8427 18.6736L16.9493 20.3835C16.5726 21.23 15.9801 21.958 15.1674 22.5591C14.3548 23.1601 13.4406 23.6214 12.4205 23.9389C11.4005 24.2563 10.3974 24.4171 9.40699 24.4171C8.10761 24.4171 6.9098 24.1589 5.81358 23.6468C4.71736 23.1347 3.77775 22.449 2.9905 21.594C2.20326 20.7391 1.59378 19.7783 1.16629 18.7117C0.734576 17.6409 0.522949 16.5531 0.522949 15.4484ZM32.8847 21.1666V24.2944H20.1787V6.94111H32.6519V10.0689H23.9245V13.9798H31.4456V16.9129H23.9245V21.1666H32.8847ZM51.3638 19.8206C51.3638 20.7983 51.093 21.6152 50.5554 22.2755C50.0179 22.9357 49.2941 23.4352 48.3884 23.778C47.4826 24.1209 46.4711 24.2901 45.3579 24.2901H36.5543V6.93687H46.4372C47.2922 6.93687 48.0329 7.15273 48.6593 7.58444C49.2857 8.01616 49.7639 8.57485 50.0983 9.26051C50.4327 9.94618 50.5977 10.653 50.5977 11.3852C50.5977 12.2021 50.3734 12.9809 49.929 13.7301C49.4846 14.4792 48.8328 15.0337 47.9778 15.3934C49.0233 15.6855 49.8486 16.2103 50.4538 16.9679C51.0591 17.734 51.3638 18.6821 51.3638 19.8206ZM40.3043 9.99698V14.1025H44.8204C45.214 14.1025 45.5653 14.0263 45.8743 13.8697C46.1832 13.7131 46.4245 13.4846 46.6065 13.1714C46.7843 12.8624 46.8774 12.4857 46.8774 12.0455C46.8774 11.6223 46.797 11.2583 46.6319 10.9578C46.4711 10.6572 46.2467 10.4202 45.9632 10.2467C45.6796 10.0774 45.3494 9.9885 44.977 9.9885H40.3043V9.99698ZM47.5419 19.1392C47.5419 18.7329 47.4572 18.3604 47.2837 18.026C47.1144 17.6917 46.8816 17.425 46.5896 17.2303C46.2975 17.0356 45.9462 16.9383 45.5357 16.9383H40.3001V21.2639H45.3579C45.7854 21.2639 46.1663 21.1666 46.5007 20.9719C46.835 20.7772 47.089 20.5232 47.271 20.2142C47.4488 19.9053 47.5419 19.5455 47.5419 19.1392ZM67.6886 21.1666V24.2944H54.9826V6.94111H67.4558V10.0689H58.7284V13.9798H66.2496V16.9129H58.7284V21.1666H67.6886ZM71.3582 24.2944V6.94111H79.1079C79.946 6.94111 80.7205 7.1104 81.4316 7.44054C82.1426 7.77491 82.7606 8.21509 83.2939 8.76108C83.8229 9.30707 84.2335 9.92926 84.5255 10.6319C84.8176 11.3344 84.9615 12.0413 84.9615 12.7566C84.9615 13.7343 84.716 14.6654 84.2293 15.5543C83.7425 16.4431 83.078 17.1584 82.24 17.7044C81.4019 18.2504 80.3988 18.5212 79.2391 18.5212H75.1082V24.2901H71.3582V24.2944ZM75.104 15.4231H79.0063C79.4 15.4231 79.7597 15.3172 80.0856 15.1056C80.4115 14.894 80.6697 14.585 80.8687 14.1787C81.0633 13.7724 81.1649 13.2983 81.1649 12.7608C81.1649 12.1725 81.0507 11.6815 80.8179 11.2836C80.5851 10.8858 80.3015 10.5811 79.9586 10.3779C79.6158 10.1747 79.2476 10.0732 78.854 10.0732H75.1082V15.4231H75.104Z" fill="white"/>
<path d="M187.477 30H90.8151V0H187.477V30ZM93.9259 26.8849H184.362V3.11088H93.9259V26.8849ZM98.5013 23.6766V6.32337H113.412V23.6766H109.667V9.45118H102.251V23.6766H98.5013ZM117.158 23.6766V6.32337H124.908C125.746 6.32337 126.52 6.49266 127.232 6.8228C127.943 7.15717 128.561 7.59735 129.094 8.14334C129.623 8.68933 130.033 9.3115 130.326 10.0141C130.618 10.7167 130.761 11.4235 130.761 12.1388C130.761 13.1165 130.516 14.0477 130.029 14.9365C129.543 15.8253 128.878 16.5406 128.04 17.0866C127.202 17.6326 126.199 17.9035 125.039 17.9035H120.908V23.6724H117.158V23.6766ZM120.908 14.8053H124.811C125.204 14.8053 125.564 14.6995 125.89 14.4879C126.216 14.2762 126.474 13.9673 126.673 13.5609C126.868 13.1546 126.969 12.6806 126.969 12.1431C126.969 11.5547 126.855 11.0638 126.622 10.6659C126.389 10.2681 126.106 9.96332 125.763 9.76016C125.42 9.557 125.052 9.45542 124.658 9.45542H120.912V14.8053H120.908ZM145.855 20.5488V23.6766H133.149V6.32337H145.622V9.45118H136.894V13.362H144.416V16.2952H136.894V20.5488H145.855ZM147.188 14.8265C147.188 13.7853 147.387 12.7525 147.793 11.7325C148.195 10.7125 148.783 9.78555 149.562 8.94751C150.341 8.10948 151.285 7.44074 152.398 6.94131C153.511 6.44611 154.777 6.19638 156.195 6.19638C157.888 6.19638 159.352 6.54769 160.584 7.24605C161.815 7.94865 162.738 8.85864 163.356 9.98448L160.457 11.8891C160.165 11.2373 159.78 10.7294 159.301 10.3612C158.823 9.99294 158.302 9.73899 157.748 9.59085C157.193 9.44271 156.639 9.37076 156.093 9.37076C155.238 9.37076 154.489 9.53583 153.846 9.86174C153.202 10.1876 152.669 10.6194 152.241 11.1569C151.814 11.6944 151.497 12.2997 151.293 12.9642C151.086 13.6329 150.984 14.2932 150.984 14.945C150.984 15.6941 151.107 16.4094 151.357 17.0951C151.607 17.7808 151.954 18.3818 152.411 18.9024C152.864 19.423 153.405 19.8378 154.04 20.151C154.671 20.4599 155.382 20.6165 156.169 20.6165C156.715 20.6165 157.274 20.5319 157.837 20.3583C158.4 20.189 158.925 19.9097 159.403 19.5288C159.881 19.1479 160.249 18.6527 160.508 18.0516L163.614 19.7616C163.238 20.6081 162.645 21.3361 161.832 21.9371C161.02 22.5381 160.105 22.9994 159.085 23.3169C158.065 23.6343 157.062 23.7952 156.072 23.7952C154.772 23.7952 153.575 23.537 152.478 23.0248C151.382 22.5127 150.443 21.827 149.655 20.9721C148.868 20.1171 148.263 19.1563 147.831 18.0897C147.404 17.0231 147.188 15.9354 147.188 14.8265ZM164.562 14.8265C164.562 13.7853 164.761 12.7525 165.168 11.7325C165.57 10.7125 166.158 9.78555 166.937 8.94751C167.715 8.10948 168.659 7.44074 169.772 6.94131C170.886 6.44611 172.151 6.19638 173.569 6.19638C175.262 6.19638 176.727 6.54769 177.958 7.24605C179.19 7.94865 180.113 8.85864 180.73 9.98448L177.831 11.8891C177.539 11.2373 177.154 10.7294 176.676 10.3612C176.197 9.99294 175.677 9.73899 175.122 9.59085C174.568 9.44271 174.013 9.37076 173.467 9.37076C172.612 9.37076 171.863 9.53583 171.22 9.86174C170.577 10.1876 170.043 10.6194 169.616 11.1569C169.188 11.6944 168.871 12.2997 168.668 12.9642C168.46 13.6329 168.359 14.2932 168.359 14.945C168.359 15.6941 168.482 16.4094 168.731 17.0951C168.981 17.7808 169.328 18.3818 169.785 18.9024C170.238 19.423 170.78 19.8378 171.415 20.151C172.045 20.4599 172.756 20.6165 173.544 20.6165C174.09 20.6165 174.648 20.5319 175.211 20.3583C175.774 20.1848 176.299 19.9097 176.777 19.5288C177.256 19.1479 177.624 18.6527 177.882 18.0516L180.989 19.7616C180.612 20.6081 180.019 21.3361 179.207 21.9371C178.394 22.5381 177.48 22.9994 176.46 23.3169C175.44 23.6343 174.437 23.7952 173.446 23.7952C172.147 23.7952 170.949 23.537 169.853 23.0248C168.757 22.5127 167.817 21.827 167.03 20.9721C166.243 20.1171 165.633 19.1563 165.206 18.0897C164.778 17.0231 164.562 15.9354 164.562 14.8265Z" fill="white"/>
</g>
<defs>
<clipPath id="clip0_466_63238">
<rect width="186.954" height="30" fill="white" transform="translate(0.522949)"/>
</clipPath>
</defs>
</svg>
