<svg width="284" height="313" viewBox="0 0 284 313" fill="none" xmlns="http://www.w3.org/2000/svg">
<path d="M206.534 1.79576V0.0625H202.276L191.63 3.52928V8.72931L200.146 10.4626L206.534 8.72931V1.79602V1.79576ZM234.214 45.1291V38.1958L236.344 32.9958V29.529L234.214 27.7957L232.085 32.9958L229.956 41.6623L223.568 46.8624L212.922 48.5956L210.793 50.3289H208.664L206.535 53.7957L204.406 55.5289L202.277 57.2622L200.147 58.9954V60.7287L202.277 62.462V64.1952L200.147 67.662L202.277 74.5953V81.5286L195.889 86.7287L191.63 90.1954L189.501 95.3955L187.372 98.8623L185.243 102.329V109.262L183.114 112.729L180.985 117.929H187.372L189.501 119.662L191.631 121.396L195.889 119.662H200.146L212.922 126.596L219.31 136.996V138.729L217.181 140.462L219.31 145.662V150.862H215.051L208.663 154.329L206.534 159.529L215.051 166.463L221.439 169.929H217.18L212.922 168.196L208.663 169.929H206.534V164.729L204.405 161.263V159.529L206.534 156.063V152.596L208.663 150.863L210.792 149.13H208.663V147.396L210.792 145.663V138.73L208.663 135.263V128.33H185.242L180.983 133.53L178.854 136.997V142.197L174.595 154.33L170.337 157.797L163.949 159.53L161.82 164.73L157.561 168.197L151.173 169.93L144.786 173.397L140.527 171.664L138.398 173.397L134.139 178.597H127.751V176.864L125.622 175.131L117.105 173.397L110.718 169.931L106.459 168.197L104.33 164.731L102.201 159.531V154.331L110.718 157.797L121.364 161.264L119.235 162.997H114.976V164.731L121.364 168.197H129.881V164.731L132.01 161.264H134.139L138.397 159.531L140.527 157.797H142.656V154.331L151.173 150.864L159.69 147.397L161.819 142.197V138.73L168.206 135.263L172.465 130.063L168.206 123.13L166.077 112.73L172.465 104.063L176.724 95.3968L180.982 84.9967L183.111 83.2634L185.241 81.5302L191.628 71.1301L189.499 62.4633V53.7967L198.016 46.8634L210.792 29.53V24.33L206.533 19.1299L195.887 15.6631L191.628 13.9299L187.37 12.1966H185.241L187.37 10.4634H185.241V8.7301L174.595 19.1302L163.95 31.2628L146.916 41.6628L134.141 46.8629H136.27L134.141 50.3297H132.011L129.882 53.7964H134.141L136.27 55.5297L132.011 60.7297L127.753 67.6631V71.1299L125.624 74.5966L123.494 72.8634H121.365L117.107 76.3301L114.978 81.5302V83.2634L117.107 81.5302H119.236L121.365 84.997L123.494 88.4637H125.623V91.9305L123.494 93.6638V102.33L127.753 105.797V107.53L114.977 119.664H110.719L112.848 117.93V116.197L110.719 114.464L108.59 112.731L106.46 100.597L103.991 100.794L103.632 99.6261L102.676 98.4582L105.105 98.4036L104.23 96.5117L102.202 95.3976L103.393 92.5212L97.9435 86.7307L89.4266 81.5307L85.1676 84.9975L83.0388 86.7307L80.909 88.4643L85.1676 93.6643L87.2974 95.3976V98.8643L80.909 105.798H78.7805L76.6514 112.731L80.91 117.931L83.0391 123.131L74.5223 126.598L63.8762 131.798L61.7471 133.531L59.6179 136.998H51.101L42.5841 138.731H36.1964L31.9378 142.198V143.931L25.55 145.665L21.2902 149.132L19.1636 150.865L14.9049 149.132H8.5172L10.6463 154.332V157.795L12.7755 161.262V162.995L8.51657 168.196L6.38774 173.395H2.12912L0 176.862L2.12912 180.329L8.51686 182.062L6.38774 185.529L8.51686 188.995H14.9046L17.0338 190.729L21.2924 188.995H25.551V190.729L27.6801 192.462L29.8093 190.729H31.9384L38.3261 192.462L44.7139 195.929L46.8431 197.662L51.1017 199.395L48.9725 201.129L44.7139 202.862L48.9725 208.062L55.3602 213.262L59.6189 211.529L63.8775 209.795L70.2652 211.529H72.3943L74.5235 209.795H78.7821V211.529L80.9113 213.262H83.0404L87.299 216.729L85.1699 218.462L83.0407 221.929V227.129L85.1699 230.596L89.4285 234.062V246.196L100.075 247.929L110.721 246.196L114.979 251.396L117.109 256.596L121.367 260.063L125.626 261.796L136.272 263.529L144.789 268.729L155.435 273.929L157.564 280.863L161.823 284.329H176.727L180.986 286.062L185.244 287.796L198.02 284.329L206.537 280.862H208.666V286.062L215.054 291.262H223.571L227.829 296.462L232.088 301.662H240.605L244.863 305.129L249.123 312.062L259.768 305.129L266.156 298.196L268.285 294.729V292.996L270.414 291.262L272.543 287.796L268.285 286.062L266.155 284.329V280.862L268.285 279.129H272.543L281.06 268.729L283.189 258.329L281.06 253.129L276.801 254.862L272.543 253.129L270.414 249.662H266.155L264.026 244.462H266.155L268.284 240.995V228.862L261.896 227.129L259.767 221.928V209.795L261.896 202.862L259.767 194.195L257.638 188.995L255.509 187.262V185.529L259.073 183.415L261.031 180.655L257.638 178.595V171.663L266.155 168.196L270.414 159.529L274.672 138.729L272.543 136.996L270.414 135.263V133.529L268.285 131.796L264.026 135.263H257.639L253.38 131.796L246.992 128.329L244.863 123.129L242.734 119.662V114.463L246.992 112.73V110.997H249.123L257.639 105.797L261.897 102.33L266.156 104.063H270.414L272.543 95.3966V86.73L268.284 83.2632L264.025 79.7964V72.8631H270.413L274.672 69.3963V64.1963L270.413 60.7295L266.154 57.2627L264.025 53.7959L261.896 50.3292H255.508L249.121 53.7959H253.379L255.508 57.2627V60.7295L246.992 58.9962L244.862 53.7962L236.345 55.5294L234.216 62.4627L236.345 69.3961L240.604 74.5961H244.863L249.121 78.0629L246.992 86.7294L244.863 83.2626L242.734 79.7959L229.958 74.5959L219.312 67.6625L221.441 65.9293L225.7 58.996L223.571 55.5292L229.959 50.3292L234.217 45.1291H234.214ZM257.636 48.5959L259.765 46.8626V43.3958L257.636 41.6626L246.99 45.1294L255.507 48.5962H257.636V48.5959ZM236.344 22.5959L227.827 20.8627L229.956 26.0627H232.085L234.214 22.5959H236.344ZM246.99 13.9294L249.119 15.6626L251.248 13.9294L246.989 12.1961L244.86 13.9294H246.99Z" fill="#DBEEFF"/>
</svg>
