<svg width="40" height="40" viewBox="0 0 40 40" fill="none" xmlns="http://www.w3.org/2000/svg">
<rect width="40" height="40" rx="20" transform="matrix(-1 0 0 1 40 0)" fill="#0E0E0E"/>
<path d="M24.2 27.2667C24.3778 27.0445 24.4722 26.8 24.4833 26.5334C24.4944 26.2667 24.4 26.0334 24.2 25.8334L18.3333 19.9667L24.2333 14.0667C24.4111 13.8889 24.4944 13.65 24.4833 13.35C24.4722 13.05 24.3778 12.8112 24.2 12.6334C23.9778 12.4112 23.7389 12.3056 23.4833 12.3167C23.2278 12.3278 23 12.4334 22.8 12.6334L16.1667 19.2667C16.0556 19.3778 15.9778 19.4889 15.9333 19.6C15.8889 19.7112 15.8667 19.8334 15.8667 19.9667C15.8667 20.1 15.8889 20.2223 15.9333 20.3334C15.9778 20.4445 16.0556 20.5556 16.1667 20.6667L22.7667 27.2667C22.9667 27.4667 23.2 27.5612 23.4667 27.55C23.7333 27.5389 23.9778 27.4445 24.2 27.2667Z" fill="white"/>
</svg>
