<svg width="24" height="25" viewBox="0 0 24 25" fill="none" xmlns="http://www.w3.org/2000/svg">
<g clip-path="url(#clip0_589_9729)">
<path d="M18.3962 14.6483C18.9209 14.1236 18.9959 13.374 18.5461 12.6244C18.1713 12.0247 17.4967 11.7248 16.7471 11.8747C16.4472 11.9497 16.1474 12.0996 15.8475 12.3245C13.5237 13.8987 10.3754 13.8237 8.05159 12.2495C7.90167 12.1746 7.75175 12.0996 7.60182 12.0247C6.77725 11.6499 5.95269 11.7998 5.50293 12.5494C4.9782 13.299 5.05315 14.1236 5.7278 14.7982C5.87772 14.9482 6.02764 15.0231 6.1026 15.173L6.17757 15.248C7.22702 16.0726 8.50136 16.5973 10.1505 16.8222L9.17601 17.7967C8.35144 18.6212 7.45191 19.5208 6.62734 20.3453C6.40246 20.5702 6.1026 20.945 6.1026 21.4698C6.1026 22.1444 6.47742 22.819 7.15207 23.1189C7.37695 23.2688 7.60183 23.2688 7.82671 23.2688C8.20151 23.2688 8.65128 23.1189 8.95112 22.7441C10.0755 21.6197 10.9751 20.7201 11.8746 19.8206C11.9496 19.7457 11.9496 19.7456 11.9496 19.7456C11.9496 19.7456 12.0245 19.7457 12.0245 19.8206C12.6242 20.4953 13.2989 21.0949 13.8986 21.7696C14.1984 22.0694 14.4982 22.3693 14.7981 22.6691C15.1729 23.0439 15.4727 23.1939 15.9225 23.1939C16.5971 23.2688 17.3468 22.819 17.6466 22.1444C17.9464 21.5447 17.7965 20.7951 17.2718 20.3453C16.5222 19.5957 15.7726 18.7712 14.948 18.0215L13.6737 16.7472C14.3483 16.6722 15.0979 16.5223 15.7726 16.2225C16.897 15.8477 17.7216 15.3229 18.3962 14.6483Z" fill="white"/>
<path d="M11.9496 12.5494C15.1729 12.5494 17.7965 10.0007 17.7965 6.77738C17.7965 5.2032 17.1968 3.70399 16.0724 2.57957C14.948 1.45516 13.5237 0.855469 12.0245 0.855469C8.80121 0.855469 6.25253 3.4791 6.17757 6.62746C6.17757 8.20164 6.77726 9.6259 7.90167 10.7503C8.95113 11.9497 10.3754 12.5494 11.9496 12.5494ZM10.3004 5.05329C10.7502 4.60352 11.3499 4.37863 11.9496 4.37863C13.2989 4.37863 14.2734 5.42809 14.2734 6.70243C14.2734 8.05173 13.2239 9.02621 11.9496 9.02621C10.6003 9.02621 9.62578 7.97677 9.62578 6.70243C9.62578 6.10274 9.85066 5.50306 10.3004 5.05329Z" fill="white"/>
<path d="M18.3962 14.6483C18.9209 14.1236 18.9959 13.374 18.5461 12.6244C18.1713 12.0247 17.4967 11.7248 16.7471 11.8747C16.4472 11.9497 16.1474 12.0996 15.8475 12.3245C13.5237 13.8987 10.3754 13.8237 8.05159 12.2495C7.90167 12.1746 7.75175 12.0996 7.60182 12.0247C6.77725 11.6499 5.95269 11.7998 5.50293 12.5494C4.9782 13.299 5.05315 14.1236 5.7278 14.7982C5.87772 14.9482 6.02764 15.0231 6.1026 15.173L6.17757 15.248C7.22702 16.0726 8.50136 16.5973 10.1505 16.8222L9.17601 17.7967C8.35144 18.6212 7.45191 19.5208 6.62734 20.3453C6.40246 20.5702 6.1026 20.945 6.1026 21.4698C6.1026 22.1444 6.47742 22.819 7.15207 23.1189C7.37695 23.2688 7.60183 23.2688 7.82671 23.2688C8.20151 23.2688 8.65128 23.1189 8.95112 22.7441C10.0755 21.6197 10.9751 20.7201 11.8746 19.8206C11.9496 19.7457 11.9496 19.7456 11.9496 19.7456C11.9496 19.7456 12.0245 19.7457 12.0245 19.8206C12.6242 20.4953 13.2989 21.0949 13.8986 21.7696C14.1984 22.0694 14.4982 22.3693 14.7981 22.6691C15.1729 23.0439 15.4727 23.1939 15.9225 23.1939C16.5971 23.2688 17.3468 22.819 17.6466 22.1444C17.9464 21.5447 17.7965 20.7951 17.2718 20.3453C16.5222 19.5957 15.7726 18.7712 14.948 18.0215L13.6737 16.7472C14.3483 16.6722 15.0979 16.5223 15.7726 16.2225C16.897 15.8477 17.7216 15.3229 18.3962 14.6483Z" fill="white"/>
</g>
<defs>
<clipPath id="clip0_589_9729">
<rect width="24" height="24" fill="white" transform="translate(0 0.0625)"/>
</clipPath>
</defs>
</svg>
