<svg width="64" height="45" viewBox="0 0 64 45" fill="none" xmlns="http://www.w3.org/2000/svg">
<path d="M53.7 44.8125C52.0333 44.8125 50.7833 44.1292 49.95 42.7625C49.1167 41.3958 49.0667 39.9792 49.8 38.5125L54.6 28.8125H42C40.3333 28.8125 38.9167 28.2292 37.75 27.0625C36.5833 25.8958 36 24.4792 36 22.8125V6.8125C36 5.14583 36.5833 3.72917 37.75 2.5625C38.9167 1.39583 40.3333 0.8125 42 0.8125H58C59.6667 0.8125 61.0833 1.39583 62.25 2.5625C63.4167 3.72917 64 5.14583 64 6.8125V28.2125C64 28.6792 63.95 29.1458 63.85 29.6125C63.75 30.0792 63.6 30.5125 63.4 30.9125L57.6 42.4125C57.2667 43.1458 56.75 43.7292 56.05 44.1625C55.35 44.5958 54.5667 44.8125 53.7 44.8125ZM17.7 44.8125C16.0333 44.8125 14.7833 44.1292 13.95 42.7625C13.1167 41.3958 13.0667 39.9792 13.8 38.5125L18.6 28.8125H6C4.33333 28.8125 2.91667 28.2292 1.75 27.0625C0.583333 25.8958 0 24.4792 0 22.8125V6.8125C0 5.14583 0.583333 3.72917 1.75 2.5625C2.91667 1.39583 4.33333 0.8125 6 0.8125H22C23.6667 0.8125 25.0833 1.39583 26.25 2.5625C27.4167 3.72917 28 5.14583 28 6.8125V28.2125C28 28.6792 27.95 29.1458 27.85 29.6125C27.75 30.0792 27.6 30.5125 27.4 30.9125L21.6 42.4125C21.2667 43.1458 20.75 43.7292 20.05 44.1625C19.35 44.5958 18.5667 44.8125 17.7 44.8125Z" fill="#E4E4E4"/>
</svg>
