<svg width="28" height="28" viewBox="0 0 28 28" fill="none" xmlns="http://www.w3.org/2000/svg">
<path d="M22.1959 24.2959L15.3417 17.4709C14.7778 17.9182 14.1119 18.2682 13.3438 18.5209C12.5758 18.7737 11.7445 18.9001 10.8501 18.9001C8.61395 18.9001 6.71811 18.1223 5.16256 16.5668C3.607 15.0112 2.82922 13.1348 2.82922 10.9376C2.82922 8.74038 3.607 6.86399 5.16256 5.30843C6.71811 3.75288 8.60422 2.9751 10.8209 2.9751C13.0181 2.9751 14.8896 3.75288 16.4355 5.30843C17.9813 6.86399 18.7542 8.74038 18.7542 10.9376C18.7542 11.8126 18.6327 12.6244 18.3896 13.373C18.1466 14.1216 17.782 14.8265 17.2959 15.4876L24.2084 22.3418C24.4806 22.614 24.6167 22.9397 24.6167 23.3188C24.6167 23.698 24.4709 24.0237 24.1792 24.2959C23.907 24.5876 23.5764 24.7334 23.1876 24.7334C22.7987 24.7334 22.4681 24.5876 22.1959 24.2959ZM10.8209 16.1584C12.2792 16.1584 13.5091 15.648 14.5105 14.6272C15.5119 13.6063 16.0126 12.3765 16.0126 10.9376C16.0126 9.47926 15.5119 8.24454 14.5105 7.23343C13.5091 6.22232 12.2792 5.71676 10.8209 5.71676C9.36256 5.71676 8.12297 6.22232 7.10214 7.23343C6.08131 8.24454 5.57089 9.47926 5.57089 10.9376C5.57089 12.3765 6.08131 13.6063 7.10214 14.6272C8.12297 15.648 9.36256 16.1584 10.8209 16.1584Z" fill="#F6F6F8"/>
</svg>
