<svg width="43" height="30" viewBox="0 0 43 30" fill="none" xmlns="http://www.w3.org/2000/svg">
<path d="M35.9665 29.5208C34.8554 29.5208 34.0221 29.0653 33.4665 28.1542C32.9109 27.2431 32.8776 26.2986 33.3665 25.3208L36.5665 18.8542H28.1665C27.0554 18.8542 26.1109 18.4653 25.3332 17.6875C24.5554 16.9097 24.1665 15.9653 24.1665 14.8542V4.1875C24.1665 3.07639 24.5554 2.13194 25.3332 1.35417C26.1109 0.576389 27.0554 0.1875 28.1665 0.1875H38.8332C39.9443 0.1875 40.8887 0.576389 41.6665 1.35417C42.4443 2.13194 42.8332 3.07639 42.8332 4.1875V18.4542C42.8332 18.7653 42.7998 19.0764 42.7332 19.3875C42.6665 19.6986 42.5665 19.9875 42.4332 20.2542L38.5665 27.9208C38.3443 28.4097 37.9998 28.7986 37.5332 29.0875C37.0665 29.3764 36.5443 29.5208 35.9665 29.5208ZM11.9665 29.5208C10.8554 29.5208 10.0221 29.0653 9.46651 28.1542C8.91095 27.2431 8.87761 26.2986 9.3665 25.3208L12.5665 18.8542H4.1665C3.05539 18.8542 2.11095 18.4653 1.33317 17.6875C0.555393 16.9097 0.166504 15.9653 0.166504 14.8542V4.1875C0.166504 3.07639 0.555393 2.13194 1.33317 1.35417C2.11095 0.576389 3.05539 0.1875 4.1665 0.1875H14.8332C15.9443 0.1875 16.8887 0.576389 17.6665 1.35417C18.4443 2.13194 18.8332 3.07639 18.8332 4.1875V18.4542C18.8332 18.7653 18.7998 19.0764 18.7332 19.3875C18.6665 19.6986 18.5665 19.9875 18.4332 20.2542L14.5665 27.9208C14.3443 28.4097 13.9998 28.7986 13.5332 29.0875C13.0665 29.3764 12.5443 29.5208 11.9665 29.5208Z" fill="#E4E4E4"/>
</svg>
