<svg width="110" height="44" viewBox="0 0 110 44" fill="none" xmlns="http://www.w3.org/2000/svg">
<path d="M57.3332 19.3998C57.6221 19.3998 57.861 19.3054 58.0499 19.1165C58.2388 18.9276 58.3332 18.6887 58.3332 18.3998V14.9998H61.7332C62.0221 14.9998 62.261 14.9054 62.4499 14.7165C62.6388 14.5276 62.7332 14.2887 62.7332 13.9998C62.7332 13.7109 62.6388 13.4721 62.4499 13.2832C62.261 13.0943 62.0221 12.9998 61.7332 12.9998H58.3332V9.59984C58.3332 9.31095 58.2388 9.07206 58.0499 8.88317C57.861 8.69428 57.6221 8.59984 57.3332 8.59984C57.0443 8.59984 56.8054 8.69428 56.6165 8.88317C56.4277 9.07206 56.3332 9.31095 56.3332 9.59984V12.9998H52.9332C52.6443 12.9998 52.4054 13.0943 52.2165 13.2832C52.0277 13.4721 51.9332 13.7109 51.9332 13.9998C51.9332 14.2887 52.0277 14.5276 52.2165 14.7165C52.4054 14.9054 52.6443 14.9998 52.9332 14.9998H56.3332V18.3998C56.3332 18.6887 56.4277 18.9276 56.6165 19.1165C56.8054 19.3054 57.0443 19.3998 57.3332 19.3998ZM47.9999 25.3332C47.4665 25.3332 46.9999 25.1332 46.5999 24.7332C46.1999 24.3332 45.9999 23.8665 45.9999 23.3332V4.6665C45.9999 4.13317 46.1999 3.6665 46.5999 3.2665C46.9999 2.8665 47.4665 2.6665 47.9999 2.6665H66.6665C67.1999 2.6665 67.6665 2.8665 68.0665 3.2665C68.4665 3.6665 68.6665 4.13317 68.6665 4.6665V23.3332C68.6665 23.8665 68.4665 24.3332 68.0665 24.7332C67.6665 25.1332 67.1999 25.3332 66.6665 25.3332H47.9999ZM47.9999 23.3332H66.6665V4.6665H47.9999V23.3332ZM43.9999 29.3332C43.4665 29.3332 42.9999 29.1332 42.5999 28.7332C42.1999 28.3332 41.9999 27.8665 41.9999 27.3332V7.6665C41.9999 7.37761 42.0943 7.13873 42.2832 6.94984C42.4721 6.76095 42.711 6.6665 42.9999 6.6665C43.2888 6.6665 43.5277 6.76095 43.7165 6.94984C43.9054 7.13873 43.9999 7.37761 43.9999 7.6665V27.3332H63.6665C63.9554 27.3332 64.1943 27.4276 64.3832 27.6165C64.5721 27.8054 64.6665 28.0443 64.6665 28.3332C64.6665 28.6221 64.5721 28.8609 64.3832 29.0498C64.1943 29.2387 63.9554 29.3332 63.6665 29.3332H43.9999ZM47.9999 4.6665V23.3332V4.6665Z" fill="#0E0E0E"/>
<path d="M23.0108 33.2727V42H21.1869V34.7727H17.6585V42H15.8347V33.2727H23.0108ZM27.6909 42.1278C27.0289 42.1278 26.4565 41.9872 25.9735 41.706C25.4934 41.4219 25.1227 41.027 24.8613 40.5213C24.5999 40.0128 24.4693 39.4233 24.4693 38.7528C24.4693 38.0767 24.5999 37.4858 24.8613 36.9801C25.1227 36.4716 25.4934 36.0767 25.9735 35.7955C26.4565 35.5114 27.0289 35.3693 27.6909 35.3693C28.3528 35.3693 28.9238 35.5114 29.4039 35.7955C29.8869 36.0767 30.259 36.4716 30.5204 36.9801C30.7818 37.4858 30.9124 38.0767 30.9124 38.7528C30.9124 39.4233 30.7818 40.0128 30.5204 40.5213C30.259 41.027 29.8869 41.4219 29.4039 41.706C28.9238 41.9872 28.3528 42.1278 27.6909 42.1278ZM27.6994 40.7216C28.0005 40.7216 28.2519 40.6364 28.4536 40.4659C28.6553 40.2926 28.8073 40.0568 28.9096 39.7585C29.0147 39.4602 29.0673 39.1207 29.0673 38.7401C29.0673 38.3594 29.0147 38.0199 28.9096 37.7216C28.8073 37.4233 28.6553 37.1875 28.4536 37.0142C28.2519 36.8409 28.0005 36.7543 27.6994 36.7543C27.3954 36.7543 27.1397 36.8409 26.9323 37.0142C26.7278 37.1875 26.573 37.4233 26.4678 37.7216C26.3656 38.0199 26.3144 38.3594 26.3144 38.7401C26.3144 39.1207 26.3656 39.4602 26.4678 39.7585C26.573 40.0568 26.7278 40.2926 26.9323 40.4659C27.1397 40.6364 27.3954 40.7216 27.6994 40.7216ZM31.5815 43.9176V40.5597H32.0843C32.2292 40.4687 32.3457 40.3239 32.4337 40.125C32.5247 39.9261 32.5985 39.6918 32.6553 39.4219C32.715 39.152 32.7605 38.8608 32.7917 38.5483C32.8258 38.233 32.8556 37.9148 32.8812 37.5938L33.0516 35.4545H38.0715V40.5597H39.0857V43.9176H37.3556V42H33.3542V43.9176H31.5815ZM33.8911 40.5597H36.3585V36.8523H34.5943L34.5261 37.5938C34.4778 38.2926 34.4082 38.8864 34.3173 39.375C34.2264 39.8608 34.0843 40.2557 33.8911 40.5597ZM40.1436 42V35.4545H45.8666V42H44.1323V36.8821H41.8567V42H40.1436ZM49.0499 39.6051L51.4064 35.4545H53.1962V42H51.4661V37.8366L49.1181 42H47.3155V35.4545H49.0499V39.6051ZM57.6088 42.1278C56.9384 42.1278 56.3617 41.9858 55.8787 41.7017C55.3986 41.4148 55.0293 41.017 54.7708 40.5085C54.5151 40 54.3872 39.4148 54.3872 38.7528C54.3872 38.0824 54.5165 37.4943 54.775 36.9886C55.0364 36.4801 55.4071 36.0838 55.8872 35.7997C56.3673 35.5128 56.9384 35.3693 57.6003 35.3693C58.1713 35.3693 58.6713 35.473 59.1003 35.6804C59.5293 35.8878 59.8688 36.179 60.1188 36.554C60.3688 36.929 60.5065 37.3693 60.5321 37.875H58.819C58.7708 37.5483 58.6429 37.2855 58.4355 37.0866C58.231 36.8849 57.9625 36.7841 57.6301 36.7841C57.3489 36.7841 57.1031 36.8608 56.8929 37.0142C56.6855 37.1648 56.5236 37.3849 56.4071 37.6747C56.2906 37.9645 56.2324 38.3153 56.2324 38.7273C56.2324 39.1449 56.2892 39.5 56.4029 39.7926C56.5193 40.0852 56.6827 40.3082 56.8929 40.4616C57.1031 40.6151 57.3489 40.6918 57.6301 40.6918C57.8375 40.6918 58.0236 40.6491 58.1884 40.5639C58.356 40.4787 58.4938 40.3551 58.6017 40.1932C58.7125 40.0284 58.785 39.831 58.819 39.6009H60.5321C60.5037 40.1009 60.3673 40.5412 60.123 40.9219C59.8815 41.2997 59.5477 41.5952 59.1216 41.8082C58.6955 42.0213 58.1912 42.1278 57.6088 42.1278ZM63.5609 42.1236C63.1433 42.1236 62.7711 42.0511 62.4444 41.9062C62.1177 41.7585 61.8592 41.5412 61.6688 41.2543C61.4813 40.9645 61.3876 40.6037 61.3876 40.1719C61.3876 39.8082 61.4543 39.5028 61.5879 39.2557C61.7214 39.0085 61.9032 38.8097 62.1333 38.6591C62.3634 38.5085 62.6248 38.3949 62.9174 38.3182C63.2129 38.2415 63.5225 38.1875 63.8464 38.1562C64.2271 38.1165 64.5339 38.0795 64.7668 38.0455C64.9998 38.0085 65.1688 37.9545 65.2739 37.8835C65.3791 37.8125 65.4316 37.7074 65.4316 37.5682V37.5426C65.4316 37.2727 65.3464 37.0639 65.1759 36.9162C65.0083 36.7685 64.7697 36.6946 64.46 36.6946C64.1333 36.6946 63.8734 36.767 63.6802 36.9119C63.487 37.054 63.3592 37.233 63.2967 37.4489L61.6177 37.3125C61.7029 36.9148 61.8705 36.571 62.1205 36.2812C62.3705 35.9886 62.693 35.7642 63.0879 35.608C63.4856 35.4489 63.9458 35.3693 64.4686 35.3693C64.8322 35.3693 65.1802 35.4119 65.5126 35.4972C65.8478 35.5824 66.1447 35.7145 66.4032 35.8935C66.6646 36.0724 66.8705 36.3026 67.0211 36.5838C67.1717 36.8622 67.247 37.196 67.247 37.5852V42H65.5254V41.0923H65.4742C65.3691 41.2969 65.2285 41.4773 65.0524 41.6335C64.8762 41.7869 64.6646 41.9077 64.4174 41.9957C64.1703 42.081 63.8847 42.1236 63.5609 42.1236ZM64.0808 40.8707C64.3478 40.8707 64.5836 40.8182 64.7882 40.7131C64.9927 40.6051 65.1532 40.4602 65.2697 40.2784C65.3862 40.0966 65.4444 39.8906 65.4444 39.6605V38.9659C65.3876 39.0028 65.3095 39.0369 65.21 39.0682C65.1134 39.0966 65.0041 39.1236 64.8819 39.1491C64.7597 39.1719 64.6376 39.1932 64.5154 39.2131C64.3933 39.2301 64.2825 39.2457 64.183 39.2599C63.97 39.2912 63.7839 39.3409 63.6248 39.4091C63.4657 39.4773 63.3421 39.5696 63.2541 39.6861C63.166 39.7997 63.122 39.9418 63.122 40.1122C63.122 40.3594 63.2114 40.5483 63.3904 40.679C63.5722 40.8068 63.8024 40.8707 64.0808 40.8707ZM67.998 36.8821V35.4545H73.9298V36.8821H71.8205V42H70.0904V36.8821H67.998ZM76.1681 37.4659H78.1241C78.9906 37.4659 79.6667 37.6733 80.1525 38.0881C80.6383 38.5 80.8812 39.0511 80.8812 39.7415C80.8812 40.1903 80.7718 40.5852 80.5531 40.9261C80.3343 41.2642 80.019 41.5284 79.607 41.7188C79.1951 41.9062 78.7008 42 78.1241 42H75.0303V35.4545H76.7647V40.5724H78.1241C78.4281 40.5724 78.6781 40.4957 78.8741 40.3423C79.0701 40.1889 79.1695 39.9929 79.1724 39.7543C79.1695 39.5014 79.0701 39.2955 78.8741 39.1364C78.6781 38.9744 78.4281 38.8935 78.1241 38.8935H76.1681V37.4659ZM85.0424 42.1278C84.372 42.1278 83.7953 41.9858 83.3123 41.7017C82.8322 41.4148 82.4629 41.017 82.2043 40.5085C81.9487 40 81.8208 39.4148 81.8208 38.7528C81.8208 38.0824 81.9501 37.4943 82.2086 36.9886C82.47 36.4801 82.8407 36.0838 83.3208 35.7997C83.8009 35.5128 84.372 35.3693 85.0339 35.3693C85.6049 35.3693 86.1049 35.473 86.5339 35.6804C86.9629 35.8878 87.3024 36.179 87.5524 36.554C87.8024 36.929 87.9401 37.3693 87.9657 37.875H86.2526C86.2043 37.5483 86.0765 37.2855 85.8691 37.0866C85.6646 36.8849 85.3961 36.7841 85.0637 36.7841C84.7825 36.7841 84.5367 36.8608 84.3265 37.0142C84.1191 37.1648 83.9572 37.3849 83.8407 37.6747C83.7242 37.9645 83.666 38.3153 83.666 38.7273C83.666 39.1449 83.7228 39.5 83.8364 39.7926C83.9529 40.0852 84.1163 40.3082 84.3265 40.4616C84.5367 40.6151 84.7825 40.6918 85.0637 40.6918C85.2711 40.6918 85.4572 40.6491 85.622 40.5639C85.7896 40.4787 85.9274 40.3551 86.0353 40.1932C86.1461 40.0284 86.2186 39.831 86.2526 39.6009H87.9657C87.9373 40.1009 87.8009 40.5412 87.5566 40.9219C87.3151 41.2997 86.9813 41.5952 86.5552 41.8082C86.1291 42.0213 85.6248 42.1278 85.0424 42.1278ZM92.9632 42V36.8778H91.736C91.4036 36.8778 91.1507 36.9545 90.9774 37.108C90.8041 37.2614 90.7189 37.4432 90.7217 37.6534C90.7189 37.8665 90.8013 38.0469 90.9689 38.1946C91.1394 38.3395 91.3894 38.4119 91.7189 38.4119H93.5683V39.6392H91.7189C91.1592 39.6392 90.6749 39.554 90.2658 39.3835C89.8567 39.2131 89.5413 38.9759 89.3198 38.6719C89.0982 38.3651 88.9888 38.0085 88.9916 37.6023C88.9888 37.1761 89.0982 36.8026 89.3198 36.4815C89.5413 36.1577 89.8581 35.9062 90.27 35.7273C90.6848 35.5455 91.1735 35.4545 91.736 35.4545H94.655V42H92.9632ZM88.8041 42L90.6237 38.5909H92.3581L90.5428 42H88.8041Z" fill="#0E0E0E"/>
</svg>
