<svg width="24" height="25" viewBox="0 0 24 25" fill="none" xmlns="http://www.w3.org/2000/svg">
<path d="M2.3507 11.7139L6.9488 13.4285L8.74126 19.1955C8.8192 19.5852 9.2868 19.6631 9.59854 19.4293L12.1703 17.3251C12.4041 17.0913 12.7938 17.0913 13.1055 17.3251L17.7036 20.6763C18.0154 20.9101 18.483 20.7542 18.5609 20.3645L21.99 3.9985C22.0679 3.60883 21.6782 3.21917 21.2886 3.37503L2.3507 10.7008C1.8831 10.8567 1.8831 11.5581 2.3507 11.7139ZM8.50747 12.5712L17.5477 7.03791C17.7036 6.95998 17.8595 7.19378 17.7036 7.27171L10.2999 14.2078C10.0661 14.4416 9.83233 14.7533 9.83233 15.143L9.59854 17.0134C9.59854 17.2472 9.20886 17.3251 9.13093 17.0134L8.19572 13.5843C7.96192 13.1947 8.1178 12.7271 8.50747 12.5712Z" fill="white"/>
</svg>
