<svg width="24" height="25" viewBox="0 0 24 25" fill="none" xmlns="http://www.w3.org/2000/svg">
<path d="M22.6727 16.9385C22.6727 16.8555 22.5897 16.8555 22.5897 16.7725C22.2576 16.1083 21.5104 15.278 20.5141 14.3648C20.016 13.9497 19.7669 13.6176 19.6009 13.4515C19.3518 13.1194 19.3518 12.8704 19.4348 12.5383C19.5179 12.2892 19.8499 11.8741 20.4311 11.1269C20.7632 10.7118 20.9292 10.4627 21.1783 10.2136C22.4236 8.55319 23.0048 7.47388 22.8387 6.97574L22.7557 6.89273C22.6727 6.80971 22.5897 6.72669 22.4236 6.72669C22.2576 6.64366 22.0085 6.64366 21.7595 6.72669H18.6046C18.5216 6.72669 18.5216 6.72669 18.3555 6.72669C18.2725 6.72669 18.1895 6.72669 18.1895 6.72669H18.1065H18.0234L17.9404 6.8097C17.8574 6.89272 17.8574 6.89272 17.8574 6.97574C17.5253 7.889 17.1102 8.6362 16.6951 9.46643C16.446 9.88155 16.1969 10.2967 15.9479 10.6288C15.6988 10.9609 15.5327 11.2099 15.3667 11.376C15.2006 11.542 15.0346 11.625 14.9516 11.7911C14.8685 11.8741 14.7025 11.9571 14.7025 11.8741C14.6195 11.8741 14.5365 11.8741 14.5365 11.7911C14.4534 11.7081 14.3704 11.625 14.2874 11.542C14.2044 11.459 14.2044 11.2929 14.1213 11.1269C14.1213 10.9608 14.1213 10.7948 14.1213 10.7118C14.1213 10.6288 14.1213 10.3797 14.1213 10.2136C14.1213 9.96458 14.1213 9.79853 14.1213 9.7155C14.1213 9.46643 14.1213 9.13435 14.1213 8.80226C14.1213 8.47017 14.1213 8.22109 14.1213 8.05505C14.1213 7.889 14.1213 7.63993 14.1213 7.47389C14.1213 7.22482 14.1213 7.05877 14.1213 6.97574C14.1213 6.89272 14.0383 6.72668 14.0383 6.64366C13.9553 6.56064 13.8723 6.47761 13.7893 6.39459C13.7062 6.31156 13.5402 6.31157 13.4572 6.22854C13.0421 6.14552 12.5439 6.0625 11.9628 6.0625C10.6344 6.0625 9.72114 6.14553 9.38905 6.31157C9.223 6.39459 9.05696 6.47761 8.97393 6.64366C8.80789 6.8097 8.80788 6.89273 8.89091 6.89273C9.30602 6.97575 9.63812 7.14179 9.80416 7.39086L9.88719 7.55692C9.97021 7.63994 9.9702 7.80598 10.0532 8.05505C10.1362 8.30411 10.1362 8.55318 10.1362 8.88527C10.1362 9.38341 10.1362 9.88155 10.1362 10.2136C10.1362 10.6288 10.0532 10.8778 10.0532 11.1269C10.0532 11.376 9.97021 11.542 9.88719 11.625C9.80417 11.7911 9.80416 11.8741 9.72113 11.8741C9.72113 11.8741 9.72113 11.9571 9.63811 11.9571C9.55508 11.9571 9.47207 12.0401 9.30602 12.0401C9.223 12.0401 9.05696 11.9571 8.97393 11.8741C8.80789 11.7911 8.64184 11.625 8.55882 11.459C8.39277 11.2929 8.22672 11.0439 8.06068 10.7118C7.89463 10.3797 7.64555 10.0476 7.47951 9.54946L7.31348 9.21737C7.23045 9.05133 7.06441 8.71923 6.89836 8.30412C6.73231 7.889 6.56626 7.55692 6.40022 7.1418C6.31719 6.97575 6.23418 6.89272 6.15116 6.8097H6.06813C6.06813 6.8097 5.9851 6.72669 5.90208 6.72669C5.81905 6.72669 5.73604 6.64366 5.65302 6.64366H2.66419C2.33209 6.64366 2.16605 6.72668 2.08303 6.8097L2 6.89273C2 6.89273 2 6.97575 2 7.05877C2 7.1418 2.00001 7.22481 2.08303 7.39086C2.49814 8.38713 2.99628 9.38341 3.49442 10.3797C3.99255 11.2929 4.4907 12.1232 4.82279 12.7043C5.2379 13.2855 5.56999 13.8667 5.9851 14.3648C6.40022 14.8629 6.64928 15.195 6.7323 15.3611C6.89835 15.5271 6.98137 15.6101 7.06439 15.6932L7.31348 15.9422C7.47952 16.1083 7.72858 16.3573 8.06068 16.6064C8.39277 16.8555 8.80788 17.1045 9.22299 17.3536C9.63811 17.6027 10.1363 17.7687 10.6344 17.9348C11.2156 18.1008 11.7137 18.1838 12.2118 18.1008H13.4572C13.7062 18.1008 13.8723 18.0178 14.0383 17.8518L14.1213 17.7687C14.1213 17.6857 14.2044 17.6857 14.2044 17.6027C14.2044 17.5197 14.2044 17.4366 14.2044 17.2706C14.2044 16.9385 14.2044 16.6894 14.2874 16.4404C14.3704 16.1913 14.3704 16.0253 14.4535 15.8592C14.5365 15.6932 14.6195 15.6101 14.7025 15.5271C14.7855 15.4441 14.8686 15.3611 14.8686 15.3611H14.9516C15.1176 15.278 15.3667 15.3611 15.5327 15.5271C15.7818 15.6932 16.0309 15.9422 16.1969 16.1913C16.363 16.4404 16.612 16.6894 16.9441 17.0215C17.2762 17.3536 17.5253 17.6027 17.6913 17.6857L17.9404 17.8518C18.1064 17.9348 18.2725 18.0178 18.5216 18.1008C18.7706 18.1838 18.9367 18.1838 19.1027 18.1838L21.9255 18.1008C22.1746 18.1008 22.4236 18.0178 22.5897 17.9348C22.7557 17.8518 22.8387 17.7687 22.8387 17.6027C22.8387 17.5197 22.8387 17.3536 22.8387 17.2706C22.6727 17.1045 22.6727 17.0215 22.6727 16.9385Z" fill="white"/>
</svg>
